# This file uses meters as units for non-parametric coordinates.

mtllib CeilingWideCorner_low.mtl
g default
v -97.235260 60.438900 105.881027
v -97.235260 60.438900 -98.767776
v -26.524582 131.149582 -28.057114
v -26.524582 131.149582 105.881027
v 104.889427 60.438900 -98.767776
v 104.889427 131.149582 -28.057114
v 104.889427 131.149582 105.881027
v -93.553162 61.286846 -77.325699
v -75.710754 61.068890 -95.490097
v -22.520470 132.148376 -4.196373
v -4.676811 131.930420 -22.360710
v -25.961540 139.650238 -8.070732
v -8.119179 139.432312 -26.235039
v -104.889435 60.567692 -87.716660
v -87.045685 60.349766 -105.881027
vt 0.000000 0.000000
vt 0.584932 0.000001
vt 0.382825 0.285823
vt 0.000000 0.285823
vt 0.777504 0.544678
vt 0.508028 0.639951
vt 0.375610 0.285823
vt 0.602678 0.831381
vt 0.604842 0.953619
vt 0.008719 0.949767
vt 0.006559 0.827524
vt 0.678655 0.949796
vt 0.008292 0.993544
vt 0.665453 0.792355
vt 0.006694 0.783747
vt 0.375610 0.668648
vt 0.000000 0.668648
vt 0.000000 0.285822
vt 0.667103 0.993450
vt 0.676496 0.827554
vn 0.707107 -0.707107 0.000000
vn 0.707107 -0.707107 0.000000
vn 0.707107 -0.707107 0.000000
vn 0.707107 -0.707107 0.000000
vn 0.000000 -0.707107 0.707107
vn 0.000000 -0.707107 0.707107
vn 0.000000 -0.707107 0.707107
vn 0.000000 -0.707107 0.707107
vn 0.000000 -1.000000 0.000000
vn 0.000000 -1.000000 0.000000
vn 0.000000 -1.000000 0.000000
vn 0.000000 -1.000000 0.000000
vn 0.402221 -0.821114 0.404958
vn 0.402221 -0.821114 0.404958
vn 0.402221 -0.821114 0.404958
vn 0.402221 -0.821114 0.404958
vn 0.700475 0.026116 -0.713199
vn 0.700475 0.026116 -0.713199
vn 0.700475 0.026116 -0.713199
vn 0.700475 0.026116 -0.713199
vn -0.700475 -0.026115 0.713199
vn -0.700475 -0.026115 0.713199
vn -0.700475 -0.026115 0.713199
vn -0.700475 -0.026115 0.713199
vn 0.027563 -0.998857 0.039060
vn 0.027563 -0.998857 0.039060
vn 0.027563 -0.998857 0.039060
vn 0.027563 -0.998857 0.039060
s off
g pasted__pasted__polySurface8 pasted__group group20
usemtl blinn21SG
f 1/1/1 2/2/2 3/3/3 4/18/4
f 2/2/5 5/5/6 6/6/7 3/3/8
f 3/4/9 6/7/10 7/16/11 4/17/12
f 8/8/13 9/9/14 11/10/15 10/11/16
f 9/9/17 15/19/18 13/13/19 11/10/20
f 14/14/21 8/8/22 10/11/23 12/15/24
f 8/8/25 14/20/26 15/12/27 9/9/28
