# This file uses meters as units for non-parametric coordinates.

mtllib CeilingNarrowFlat_low.mtl
g default
v -33.976109 100.979980 -49.999992
v -33.976109 100.979950 49.999977
v 34.062920 100.979980 -49.999992
v 34.062920 100.979950 49.999977
v -50.000000 99.020035 -50.000000
v -33.976109 99.020035 -50.000000
v -33.976109 99.020004 50.000008
v -50.000000 99.020004 50.000008
v 34.062920 99.020035 -50.000000
v 34.062920 99.020004 50.000008
v 50.000000 99.020035 -50.000000
v 50.000000 99.020004 50.000008
vt 0.740172 0.985032
vt 0.740172 0.495939
vt 0.403071 0.985032
vt 0.403071 0.495939
vt 0.816791 0.985032
vt 0.740172 0.985032
vt 0.740172 0.495939
vt 0.816791 0.495939
vt 0.403071 0.495939
vt 0.403071 0.985032
vt 0.327698 0.985032
vt 0.327698 0.495939
vn 0.000000 -1.000000 -0.000000
vn 0.000000 -1.000000 -0.000000
vn 0.000000 -1.000000 -0.000000
vn 0.000000 -1.000000 -0.000000
vn 0.000000 -1.000000 -0.000000
vn 0.000000 -1.000000 -0.000000
vn 0.000000 -1.000000 -0.000000
vn 0.000000 -1.000000 -0.000000
vn 0.000000 -1.000000 -0.000000
vn 0.000000 -1.000000 -0.000000
vn 0.000000 -1.000000 -0.000000
vn 0.000000 -1.000000 -0.000000
vn 1.000000 0.000000 0.000000
vn 1.000000 0.000000 0.000000
vn 1.000000 0.000000 0.000000
vn 1.000000 0.000000 0.000000
vn -1.000000 0.000000 0.000000
vn -1.000000 0.000000 0.000000
vn -1.000000 0.000000 0.000000
vn -1.000000 0.000000 0.000000
s off
g pCube23
usemtl blinn20SG
f 5/5/1 6/6/2 7/7/3 8/8/4
f 2/2/5 1/1/6 3/3/7 4/4/8
f 10/9/9 9/10/10 11/11/11 12/12/12
f 1/1/13 2/2/14 7/7/15 6/6/16
f 4/4/17 3/3/18 9/10/19 10/9/20
