# This file uses meters as units for non-parametric coordinates.

mtllib CeilingNarrowCorner_low.mtl
g default
v -46.537384 59.407501 55.047852
v -46.537384 59.407501 -46.560181
v 24.173309 130.118179 24.150482
v 24.173309 130.118179 55.090485
v 54.510101 59.407501 -46.560181
v 54.510101 130.118179 24.150482
v 54.510101 130.118179 55.133087
v -47.148590 59.143082 -30.155640
v -30.563354 58.940475 -47.039429
v 30.815674 134.086441 47.728363
v 47.401917 133.883804 30.844421
v 27.616669 141.059525 44.127136
v 44.201843 140.856949 27.243164
v -54.510101 60.543274 -38.249207
v -37.923859 60.340668 -55.133057
vt 1.000000 0.000122
vt 1.000000 0.290540
vt 0.714178 0.088433
vt 0.789984 0.394619
vt 0.727701 0.386812
vt 0.632427 0.117337
vt 0.988501 0.394619
vt 0.500337 0.759456
vt 0.499937 0.676585
vt 0.966564 0.679821
vt 0.966962 0.762695
vt 0.461367 0.674657
vt 0.966575 0.650144
vt 0.471275 0.784891
vt 0.966564 0.792367
vt 0.988501 0.597361
vt 0.789984 0.597083
vt 0.714178 0.000000
vt 0.471232 0.650751
vt 0.461764 0.757530
vn 0.707107 -0.707107 0.000000
vn 0.707107 -0.707107 0.000000
vn 0.707107 -0.707107 0.000000
vn 0.707107 -0.707107 0.000000
vn 0.000000 -0.707107 0.707107
vn 0.000000 -0.707107 0.707107
vn 0.000000 -0.707107 0.707107
vn 0.000000 -0.707107 0.707107
vn 0.000000 -1.000000 0.000000
vn 0.000000 -1.000000 0.000000
vn 0.000000 -1.000000 0.000000
vn 0.000000 -1.000000 0.000000
vn 0.396171 -0.826903 0.399099
vn 0.396171 -0.826903 0.399099
vn 0.396171 -0.826903 0.399099
vn 0.396171 -0.826903 0.399099
vn 0.726644 -0.041347 -0.685769
vn 0.726644 -0.041347 -0.685769
vn 0.726644 -0.041347 -0.685769
vn 0.726644 -0.041347 -0.685769
vn -0.726644 0.041345 0.685769
vn -0.726644 0.041345 0.685769
vn -0.726644 0.041345 0.685769
vn -0.726644 0.041345 0.685769
vn -0.096986 -0.991788 -0.083372
vn -0.096986 -0.991788 -0.083372
vn -0.096986 -0.991788 -0.083372
vn -0.096986 -0.991788 -0.083372
s off
g pasted__pasted__polySurface274 pasted__group1 group21
usemtl blinn21SG
f 1/1/1 2/2/2 3/3/3 4/18/4
f 2/2/5 5/5/6 6/6/7 3/3/8
f 3/4/9 6/7/10 7/16/11 4/17/12
f 8/8/13 9/9/14 11/10/15 10/11/16
f 9/9/17 15/19/18 13/13/19 11/10/20
f 14/14/21 8/8/22 10/11/23 12/15/24
f 8/8/25 14/20/26 15/12/27 9/9/28
