# This file uses meters as units for non-parametric coordinates.

mtllib Counter_low.mtl
g default
v 86.220245 80.737259 25.685425
v 86.220245 91.557312 25.685425
v 91.144760 91.557312 25.685425
v 91.144760 80.737259 25.685425
v 91.144760 91.557312 -28.490051
v 91.144760 80.737259 -28.490051
v 86.220245 80.737259 -28.490051
v 86.220245 91.557312 -28.490051
vt 0.211358 0.812261
vt 0.410527 0.812261
vt 0.410527 0.852040
vt 0.211358 0.852040
vt 0.211358 0.870144
vt 0.410528 0.870145
vt 0.211358 0.909923
vt 0.410528 0.909923
vn 1.000000 0.000000 0.000000
vn 1.000000 0.000000 0.000000
vn 1.000000 0.000000 0.000000
vn 1.000000 0.000000 0.000000
vn 0.000000 -1.000000 0.000000
vn 0.000000 -1.000000 0.000000
vn 0.000000 -1.000000 0.000000
vn 0.000000 -1.000000 0.000000
vn -1.000000 0.000000 0.000000
vn -1.000000 0.000000 0.000000
vn -1.000000 0.000000 0.000000
vn -1.000000 0.000000 0.000000
s off
g polySurface46 pasted__Workbench5 pasted__group13 group2
usemtl blinn4SG
f 5/1/1 3/2/2 4/3/3 6/4/4
f 7/5/5 6/4/6 4/3/7 1/6/8
f 8/7/9 7/5/10 1/6/11 2/8/12
g default
v 100.000000 90.229431 -37.230286
v -99.999992 90.229439 -37.230286
v 100.000000 96.008736 -37.230286
v -100.000008 96.008736 -37.230286
v 100.000000 96.008736 37.230286
v -100.000008 96.008736 37.230286
v 100.000000 90.229431 37.230286
v -99.999992 90.229439 37.230286
vt 0.756528 0.316256
vt 0.021246 0.316247
vt 0.021248 0.294996
vt 0.756527 0.295005
vt 0.021249 0.021249
vt 0.756522 0.021253
vt 0.021248 0.000000
vt 0.756518 0.000006
vt 0.756524 0.589983
vt 0.021245 0.589987
vt 0.000000 0.294997
vt 0.000000 0.021252
vt 0.777777 0.021252
vt 0.777764 0.294983
vn 0.000000 0.000000 -1.000000
vn 0.000000 0.000000 -1.000000
vn 0.000000 0.000000 -1.000000
vn 0.000000 0.000000 -1.000000
vn 0.000000 1.000000 0.000000
vn 0.000000 1.000000 0.000000
vn 0.000000 1.000000 0.000000
vn 0.000000 1.000000 0.000000
vn 0.000000 0.000000 1.000000
vn 0.000000 0.000000 1.000000
vn 0.000000 0.000000 1.000000
vn 0.000000 0.000000 1.000000
vn -0.000000 -1.000000 0.000000
vn -0.000000 -1.000000 0.000000
vn -0.000000 -1.000000 0.000000
vn -0.000000 -1.000000 0.000000
vn -1.000000 -0.000002 0.000000
vn -1.000000 -0.000002 0.000000
vn -1.000000 -0.000002 0.000000
vn -1.000000 -0.000002 0.000000
vn 1.000000 0.000000 0.000000
vn 1.000000 0.000000 0.000000
vn 1.000000 0.000000 0.000000
vn 1.000000 0.000000 0.000000
s off
g pasted__Workbench5 pasted__group13 group2 polySurface45
usemtl blinn4SG
f 9/9/13 10/10/14 12/11/15 11/12/16
f 11/12/17 12/11/18 14/13/19 13/14/20
f 13/14/21 14/13/22 16/15/23 15/16/24
f 15/17/25 16/18/26 10/10/27 9/9/28
f 10/19/29 16/20/30 14/13/31 12/11/32
f 15/21/33 9/22/34 11/12/35 13/14/36
g default
v 88.290771 11.021185 -1.664917
v -88.290688 11.021189 -1.664917
v 88.290710 21.841234 -1.664917
v -88.290749 21.841238 -1.664917
v 88.290710 21.841234 3.259644
v -88.290749 21.841238 3.259644
v 88.290771 11.021185 3.259644
v -88.290688 11.021189 3.259644
vt 0.798921 0.634587
vt 0.798921 0.000000
vt 0.839614 0.000000
vt 0.839615 0.634587
vt 0.858135 0.000000
vt 0.858135 0.634587
vt 0.898829 0.000000
vt 0.898829 0.634587
vt 0.780400 0.634587
vt 0.780400 0.000000
vn 0.000000 0.000000 -1.000000
vn 0.000000 0.000000 -1.000000
vn 0.000000 0.000000 -1.000000
vn 0.000000 0.000000 -1.000000
vn 0.000000 1.000000 0.000000
vn 0.000000 1.000000 0.000000
vn 0.000000 1.000000 0.000000
vn 0.000000 1.000000 0.000000
vn 0.000000 0.000000 1.000000
vn 0.000000 0.000000 1.000000
vn 0.000000 0.000000 1.000000
vn 0.000000 0.000000 1.000000
vn -0.000000 -1.000000 0.000000
vn -0.000000 -1.000000 0.000000
vn -0.000000 -1.000000 0.000000
vn -0.000000 -1.000000 0.000000
s off
g pasted__Workbench5 pasted__group13 group2 polySurface44
usemtl blinn4SG
f 17/23/37 18/24/38 20/25/39 19/26/40
f 19/26/41 20/25/42 22/27/43 21/28/44
f 21/28/45 22/27/46 24/29/47 23/30/48
f 23/31/49 24/32/50 18/24/51 17/23/52
g default
v 84.365570 80.737267 26.330872
v -84.365501 80.737267 26.330872
v 84.365509 91.557320 26.330872
v -84.365562 91.557320 26.330872
v 84.365509 91.557320 31.255432
v -84.365562 91.557320 31.255432
v 84.365570 80.737267 31.255432
v -84.365501 80.737267 31.255432
vt 0.960221 0.620320
vt 0.960221 0.000000
vt 0.999999 -0.000000
vt 1.000000 0.620319
vt 0.902338 0.620319
vt 0.902338 -0.000000
vt 0.942117 0.000000
vt 0.942117 0.620320
vn 0.000000 0.000000 -1.000000
vn 0.000000 0.000000 -1.000000
vn 0.000000 0.000000 -1.000000
vn 0.000000 0.000000 -1.000000
vn 0.000000 0.000000 1.000000
vn 0.000000 0.000000 1.000000
vn 0.000000 0.000000 1.000000
vn 0.000000 0.000000 1.000000
vn 0.000000 -1.000000 0.000000
vn 0.000000 -1.000000 0.000000
vn 0.000000 -1.000000 0.000000
vn 0.000000 -1.000000 0.000000
s off
g pasted__Workbench5 pasted__group13 group2 polySurface43
usemtl blinn4SG
f 25/33/53 26/34/54 28/35/55 27/36/56
f 29/37/57 30/38/58 32/39/59 31/40/60
f 31/40/61 32/39/62 26/34/63 25/33/64
g default
v 84.365570 80.737267 -29.859894
v -84.365501 80.737267 -29.859894
v 84.365509 91.557320 -29.859894
v -84.365562 91.557320 -29.859894
v 84.365509 91.557320 -24.935333
v -84.365562 91.557320 -24.935333
v 84.365570 80.737267 -24.935333
v -84.365501 80.737267 -24.935333
vt 0.960221 0.620320
vt 0.960221 0.000000
vt 0.999999 0.000000
vt 1.000000 0.620320
vt 0.902338 0.620320
vt 0.902338 0.000000
vt 0.942117 0.000000
vt 0.942117 0.620320
vn 0.000000 0.000000 -1.000000
vn 0.000000 0.000000 -1.000000
vn 0.000000 0.000000 -1.000000
vn 0.000000 0.000000 -1.000000
vn 0.000000 0.000000 1.000000
vn 0.000000 0.000000 1.000000
vn 0.000000 0.000000 1.000000
vn 0.000000 0.000000 1.000000
vn 0.000000 -1.000000 0.000000
vn 0.000000 -1.000000 0.000000
vn 0.000000 -1.000000 0.000000
vn 0.000000 -1.000000 0.000000
s off
g pasted__Workbench5 pasted__group13 group2 polySurface42
usemtl blinn4SG
f 33/41/65 34/42/66 36/43/67 35/44/68
f 37/45/69 38/46/70 40/47/71 39/48/72
f 39/48/73 40/47/74 34/42/75 33/41/76
g default
v 81.690216 -0.368242 34.597900
v 96.597382 -0.368244 34.597900
v 81.690216 91.375687 34.597900
v 96.597382 91.375679 34.597900
v 81.690216 91.375687 19.690796
v 96.597382 91.375679 19.690796
v 81.690216 -0.368242 19.690796
v 96.597382 -0.368244 19.690796
vt 0.345490 0.754398
vt 0.345490 0.699593
vt 0.682775 0.699594
vt 0.682775 0.754399
vt 0.682775 0.589985
vt 0.682775 0.644790
vt 0.345490 0.644789
vt 0.345490 0.589985
vt 0.345490 0.809202
vt 0.682775 0.809203
vn 0.000000 0.000000 1.000000
vn 0.000000 0.000000 1.000000
vn 0.000000 0.000000 1.000000
vn 0.000000 0.000000 1.000000
vn -0.000000 0.000000 -1.000000
vn -0.000000 0.000000 -1.000000
vn -0.000000 0.000000 -1.000000
vn -0.000000 0.000000 -1.000000
vn 1.000000 0.000000 0.000000
vn 1.000000 0.000000 0.000000
vn 1.000000 0.000000 0.000000
vn 1.000000 0.000000 0.000000
vn -1.000000 0.000000 0.000000
vn -1.000000 0.000000 0.000000
vn -1.000000 0.000000 0.000000
vn -1.000000 0.000000 0.000000
s off
g pasted__Workbench5 pasted__group13 group2 polySurface41
usemtl blinn4SG
f 41/49/77 42/50/78 44/51/79 43/52/80
f 45/53/81 46/54/82 48/55/83 47/56/84
f 42/50/85 48/55/86 46/54/87 44/51/88
f 47/57/89 41/49/90 43/52/91 45/58/92
g default
v -81.690224 -0.368242 34.597900
v -96.597389 -0.368244 34.597900
v -81.690224 91.375687 34.597900
v -96.597389 91.375679 34.597900
v -81.690224 91.375687 19.690796
v -96.597389 91.375679 19.690796
v -81.690224 -0.368242 19.690796
v -96.597389 -0.368244 19.690796
vt 0.682775 0.754398
vt 0.345490 0.754398
vt 0.345490 0.699594
vt 0.682775 0.699594
vt 0.345490 0.589985
vt 0.682775 0.589985
vt 0.682775 0.644790
vt 0.345490 0.644790
vt 0.682775 0.809203
vt 0.345490 0.809203
vn -0.000000 0.000000 1.000000
vn -0.000000 0.000000 1.000000
vn -0.000000 0.000000 1.000000
vn -0.000000 0.000000 1.000000
vn 0.000000 0.000000 -1.000000
vn 0.000000 0.000000 -1.000000
vn 0.000000 0.000000 -1.000000
vn 0.000000 0.000000 -1.000000
vn -1.000000 0.000000 0.000000
vn -1.000000 0.000000 0.000000
vn -1.000000 0.000000 0.000000
vn -1.000000 0.000000 0.000000
vn 1.000000 0.000000 0.000000
vn 1.000000 0.000000 0.000000
vn 1.000000 0.000000 0.000000
vn 1.000000 0.000000 0.000000
s off
g pasted__Workbench5 pasted__group13 group2 polySurface40
usemtl blinn4SG
f 49/59/93 51/60/94 52/61/95 50/62/96
f 53/63/97 55/64/98 56/65/99 54/66/100
f 50/62/101 52/61/102 54/66/103 56/65/104
f 55/67/105 53/68/106 51/60/107 49/59/108
g default
v 81.690216 -0.368242 -33.542786
v 96.597382 -0.368244 -33.542786
v 81.690216 91.375687 -33.542786
v 96.597382 91.375679 -33.542786
v 81.690216 91.375687 -18.635559
v 96.597382 91.375679 -18.635559
v 81.690216 -0.368242 -18.635559
v 96.597382 -0.368244 -18.635559
v 96.068115 51.634640 -33.013428
v 96.068115 51.634640 -19.164856
v 82.219513 51.634644 -19.164856
v 82.219513 51.634644 -33.013428
vt 0.737397 0.973047
vt 0.740321 0.781594
vt 0.791847 0.781669
vt 0.791994 0.973290
vt 0.894346 0.781398
vt 0.901136 0.971645
vt 0.846591 0.972964
vt 0.843374 0.781515
vt 0.682850 0.971812
vt 0.689349 0.781555
vt 0.791735 0.634587
vt 0.845931 0.634989
vt 0.900155 0.636673
vt 0.683317 0.636839
vt 0.737539 0.635072
vn -0.000000 0.010179 -0.999948
vn -0.000000 -0.000011 -1.000000
vn -0.000000 -0.000011 -1.000000
vn -0.000000 0.010179 -0.999948
vn 0.000000 -0.000011 1.000000
vn 0.000000 0.010178 0.999948
vn 0.000000 0.010178 0.999948
vn 0.000000 -0.000011 1.000000
vn 0.999948 0.010177 0.000000
vn 1.000000 -0.000011 0.000000
vn 1.000000 -0.000011 0.000000
vn 0.999948 0.010177 0.000000
vn -0.999948 0.010178 0.000000
vn -1.000000 -0.000011 0.000000
vn -1.000000 -0.000011 0.000000
vn -0.999948 0.010178 0.000000
vn 0.999911 -0.013316 0.000000
vn 0.999911 -0.013316 0.000000
vn 0.000000 -0.013317 0.999911
vn 0.000000 -0.013317 0.999911
vn -0.999911 -0.013317 0.000000
vn -0.999911 -0.013317 0.000000
vn 0.000000 -0.013319 -0.999911
vn 0.000000 -0.013319 -0.999911
s 1
g pasted__Workbench5 pasted__group13 group2 polySurface39
usemtl blinn4SG
f 57/69/109 68/70/110 65/71/111 58/72/112
s 2
f 67/73/113 63/74/114 64/75/115 66/76/116
s 3
f 58/72/117 65/71/118 66/76/119 64/75/120
s 4
f 63/77/121 67/78/122 68/70/123 57/69/124
s 3
f 65/71/118 60/79/125 62/80/126 66/76/119
s 2
f 61/81/127 67/73/113 66/76/116 62/80/128
s 4
f 68/70/123 67/78/122 61/82/129 59/83/130
s 1
f 65/71/111 68/70/110 59/83/131 60/79/132
g default
v -83.335106 -0.368242 -36.927124
v -98.242279 -0.368244 -36.927124
v -81.690224 91.375687 -33.542786
v -96.597389 91.375679 -33.542786
v -81.690224 91.375687 -18.635559
v -96.597389 91.375679 -18.635559
v -83.335106 -0.368242 -22.019928
v -98.242279 -0.368244 -22.019928
v -96.597389 42.131893 -33.542786
v -81.690224 42.131901 -33.542786
v -81.690224 42.131901 -18.635559
v -96.597389 42.131893 -18.635559
vt 0.341153 0.650152
vt 0.342065 0.703990
vt 0.185019 0.702217
vt 0.184880 0.646560
vt 0.180756 0.812374
vt 0.182332 0.757581
vt 0.339199 0.757177
vt 0.337101 0.811800
vt 0.338447 0.596168
vt 0.183869 0.591767
vt 0.002262 0.698945
vt 0.003011 0.644333
vt 0.003570 0.589804
vt 0.000000 0.808459
vt 0.001096 0.753742
vn 0.000000 0.079380 -0.996844
vn 0.000000 0.079380 -0.996845
vn 0.000000 0.037344 -0.999303
vn 0.000000 0.036373 -0.999338
vn 0.000000 -0.036374 0.999338
vn 0.000000 -0.037344 0.999303
vn 0.000000 -0.079381 0.996844
vn 0.000000 -0.079381 0.996844
vn -0.999252 0.038674 0.000000
vn -0.999252 0.038674 0.000000
vn -0.999848 0.017428 0.000000
vn -0.999831 0.018401 0.000000
vn 0.999252 -0.038674 0.000000
vn 0.999252 -0.038674 0.000000
vn 0.999831 -0.018401 0.000000
vn 0.999848 -0.017428 0.000000
vn 0.000000 0.000000 -1.000000
vn 0.000000 0.000000 -1.000000
vn 1.000000 0.000000 0.000000
vn 1.000000 0.000000 0.000000
vn 0.000000 0.000000 1.000000
vn 0.000000 0.000000 1.000000
vn -1.000000 0.000000 0.000000
vn -1.000000 0.000000 0.000000
s 1
g pasted__Workbench5 pasted__group13 group2 polySurface38
usemtl blinn4SG
f 69/84/133 70/85/134 77/86/135 78/87/136
s 2
f 79/88/137 80/89/138 76/90/139 75/91/140
s 3
f 70/85/141 76/90/142 80/89/143 77/86/144
s 4
f 75/92/145 69/84/146 78/87/147 79/93/148
s 1
f 78/87/136 77/86/135 72/94/149 71/95/150
s 4
f 79/93/148 78/87/147 71/95/151 73/96/152
s 2
f 73/97/153 74/98/154 80/89/138 79/88/137
s 3
f 77/86/144 80/89/143 74/98/155 72/94/156
g default
v 86.220245 11.021187 25.685425
v 86.220245 21.841234 25.685425
v 91.144760 21.841234 25.685425
v 91.144760 11.021187 25.685425
v 91.144760 21.841232 -25.699646
v 91.144760 11.021184 -25.699646
v 86.220245 11.021184 -25.699646
v 86.220245 21.841232 -25.699646
vt 0.411069 0.808656
vt 0.602093 0.808657
vt 0.602092 0.848881
vt 0.411069 0.848880
vt 0.411069 0.867187
vt 0.602092 0.867187
vt 0.411069 0.907410
vt 0.602092 0.907411
vt 0.000000 0.294997
vt 0.018104 0.294997
vt 0.018104 0.483910
vt 0.000000 0.483910
vn 1.000000 0.000000 0.000000
vn 1.000000 0.000000 0.000000
vn 1.000000 0.000000 0.000000
vn 1.000000 0.000000 0.000000
vn 0.000000 -1.000000 0.000000
vn 0.000000 -1.000000 0.000000
vn 0.000000 -1.000000 0.000000
vn 0.000000 -1.000000 0.000000
vn -1.000000 0.000000 0.000000
vn -1.000000 0.000000 0.000000
vn -1.000000 0.000000 0.000000
vn -1.000000 0.000000 0.000000
vn 0.000000 1.000000 -0.000000
vn 0.000000 1.000000 -0.000000
vn 0.000000 1.000000 -0.000000
vn 0.000000 1.000000 -0.000000
s off
g pasted__Workbench5 pasted__group13 group2 polySurface47
usemtl blinn4SG
f 85/99/157 83/100/158 84/101/159 86/102/160
f 87/103/161 86/102/162 84/101/163 81/104/164
f 88/105/165 87/103/166 81/104/167 82/106/168
f 85/107/169 88/108/170 82/109/171 83/110/172
g default
v -92.106659 80.737267 25.685425
v -92.106659 91.557320 25.685425
v -87.182144 91.557320 25.685425
v -87.182144 80.737267 25.685425
v -87.182144 91.557320 -26.571259
v -87.182144 80.737267 -26.571259
v -92.106659 80.737267 -26.571259
v -92.106659 91.557320 -26.571259
vt 0.410523 0.809203
vt 0.602638 0.809203
vt 0.602638 0.848981
vt 0.410523 0.848981
vt 0.410523 0.867085
vt 0.602638 0.867085
vt 0.410523 0.906864
vt 0.602638 0.906864
vn 1.000000 0.000000 0.000000
vn 1.000000 0.000000 0.000000
vn 1.000000 0.000000 0.000000
vn 1.000000 0.000000 0.000000
vn 0.000000 -1.000000 0.000000
vn 0.000000 -1.000000 0.000000
vn 0.000000 -1.000000 0.000000
vn 0.000000 -1.000000 0.000000
vn -1.000000 0.000000 0.000000
vn -1.000000 0.000000 0.000000
vn -1.000000 0.000000 0.000000
vn -1.000000 0.000000 0.000000
s off
g pasted__Workbench5 pasted__group13 group2 polySurface49
usemtl blinn4SG
f 93/111/173 91/112/174 92/113/175 94/114/176
f 95/115/177 94/114/178 92/113/179 89/116/180
f 96/117/181 95/115/182 89/116/183 90/118/184
g default
v -92.106659 11.021191 25.685425
v -92.106659 21.841240 25.685425
v -87.182144 21.841240 25.685425
v -87.182144 11.021191 25.685425
v -87.182152 21.841238 -30.947784
v -87.182152 11.021188 -30.947784
v -92.106667 11.021188 -30.947784
v -92.106667 21.841238 -30.947784
vt 0.000000 0.812374
vt 0.208205 0.812374
vt 0.208205 0.852152
vt 0.000000 0.852152
vt 0.000000 0.870257
vt 0.208205 0.870256
vt 0.000000 0.910036
vt 0.208206 0.910035
vt 0.000000 0.928140
vt 0.208206 0.928139
vn 1.000000 0.000000 -0.000000
vn 1.000000 0.000000 -0.000000
vn 1.000000 0.000000 -0.000000
vn 1.000000 0.000000 -0.000000
vn 0.000000 -1.000000 0.000000
vn 0.000000 -1.000000 0.000000
vn 0.000000 -1.000000 0.000000
vn 0.000000 -1.000000 0.000000
vn -1.000000 0.000000 0.000000
vn -1.000000 0.000000 0.000000
vn -1.000000 0.000000 0.000000
vn -1.000000 0.000000 0.000000
vn 0.000000 1.000000 -0.000000
vn 0.000000 1.000000 -0.000000
vn 0.000000 1.000000 -0.000000
vn 0.000000 1.000000 -0.000000
s off
g pasted__Workbench5 pasted__group13 group2 polySurface48
usemtl blinn4SG
f 101/119/185 99/120/186 100/121/187 102/122/188
f 103/123/189 102/122/190 100/121/191 97/124/192
f 104/125/193 103/123/194 97/124/195 98/126/196
f 101/127/197 104/125/198 98/126/199 99/128/200
