# This file uses meters as units for non-parametric coordinates.

mtllib Crate2_low.mtl
g default
v -31.842041 1.436989 31.852234
v 31.852234 1.436989 31.842041
v -31.842041 65.131264 31.852234
v 31.852234 65.131264 31.842041
v -31.852173 65.131264 -31.842102
v 31.842041 65.131264 -31.852234
v -31.852173 1.436989 -31.842102
v 31.842041 1.436989 -31.852234
v -23.389374 9.889675 31.850769
v 23.399536 9.889675 31.843384
v 23.399536 56.678574 31.843384
v -23.389374 56.678574 31.850769
v -23.390656 65.131264 23.398193
v 23.398132 65.131264 23.390625
v 23.390747 65.131264 -23.398193
v -23.398224 65.131264 -23.390747
v -23.399475 56.678574 -31.843445
v 23.389374 56.678574 -31.850769
v 23.389374 9.889675 -31.850769
v -23.399475 9.889675 -31.843445
v -23.398224 1.436989 -23.390747
v 23.390747 1.436989 -23.398193
v 23.398132 1.436989 23.390625
v -23.390656 1.436989 23.398193
v 31.843353 9.889675 -23.399597
v 31.850830 9.889675 23.389465
v 31.843353 56.678574 -23.399597
v 31.850830 56.678574 23.389465
v -31.850891 9.889675 -23.389404
v -31.843445 9.889675 23.399536
v -31.843445 56.678574 23.399536
v -31.850891 56.678574 -23.389404
v -22.562317 10.717075 29.792664
v 22.571777 10.717075 29.785522
v 22.571777 55.851173 29.785522
v -22.562317 55.851173 29.792664
v -22.563507 63.073296 22.570679
v 22.570679 63.073296 22.563416
v 22.563477 63.073296 -22.570679
v -22.570679 63.073296 -22.563477
v -22.571777 55.851173 -29.785583
v 22.562317 55.851173 -29.792786
v 22.562317 10.717075 -29.792786
v -22.571777 10.717075 -29.785583
v -22.570679 3.494957 -22.563477
v 22.563477 3.494957 -22.570679
v 22.570679 3.494957 22.563416
v -22.563507 3.494957 22.570679
v 29.785522 10.717075 -22.571838
v 29.792786 10.717075 22.562134
v 29.785522 55.851173 -22.571838
v 29.792786 55.851173 22.562134
v -29.792786 10.717075 -22.562378
v -29.785522 10.717075 22.571777
v -29.785522 55.851173 22.571777
v -29.792786 55.851173 -22.562378
vt 0.280838 0.387163
vt 0.280744 0.612087
vt 0.055829 0.612007
vt 0.055901 0.387061
vt 0.277131 0.722596
vt 0.277061 0.947539
vt 0.052132 0.947492
vt 0.052213 0.722582
vt 0.614088 0.389142
vt 0.614004 0.614051
vt 0.389072 0.613956
vt 0.389170 0.389034
vt 0.610328 0.278938
vt 0.385422 0.278923
vt 0.385431 0.054003
vt 0.610377 0.054005
vt 0.394619 0.945708
vt 0.394687 0.720785
vt 0.619606 0.720850
vt 0.619551 0.945778
vt 0.052195 0.052552
vt 0.277131 0.052537
vt 0.277098 0.277511
vt 0.052182 0.277429
vt 0.328574 0.000998
vt 0.343160 0.997218
vt 0.289516 0.620730
vt 0.289481 0.378392
vt 0.671065 0.997236
vt 0.047188 0.620779
vt 0.328610 0.328983
vt 0.047129 0.378417
vt 0.285833 0.956181
vt 0.285773 0.713822
vt 0.671059 0.669338
vt 0.043490 0.956265
vt 0.000729 0.328926
vt 0.043440 0.713942
vt 0.622777 0.622692
vt 0.622730 0.380372
vt 0.343178 0.669326
vt 0.380429 0.622728
vt 0.000670 0.001125
vt 0.380400 0.380390
vt 0.376784 0.287699
vt 0.619100 0.287578
vt 0.376656 0.045364
vt 0.619019 0.045230
vt 0.385914 0.712143
vt 0.385977 0.954481
vt 0.628247 0.712076
vt 0.628325 0.954421
vt 0.285769 0.043759
vt 0.043420 0.043915
vt 0.285870 0.286155
vt 0.043540 0.286200
vt 0.337606 0.665459
vt 0.333982 0.330447
vt 0.333903 0.002562
vt 0.332247 0.663549
vt 0.337671 0.337566
vt 0.332304 0.335663
vt 0.661837 0.330386
vt 0.661835 0.002482
vt 0.004373 0.663518
vt 0.328568 0.998996
vt 0.000670 0.999002
vt 0.665513 0.665509
vt 0.328586 0.671070
vt 0.004391 0.335591
vt 0.665548 0.337646
vt 0.000705 0.671139
vn 0.000158 0.000000 1.000000
vn 0.000158 0.000000 1.000000
vn 0.000158 0.000000 1.000000
vn 0.000158 0.000000 1.000000
vn 0.000000 1.000000 0.000000
vn 0.000000 1.000000 0.000000
vn 0.000000 1.000000 0.000000
vn 0.000000 1.000000 0.000000
vn -0.000160 0.000000 -1.000000
vn -0.000160 0.000000 -1.000000
vn -0.000160 0.000000 -1.000000
vn -0.000160 0.000000 -1.000000
vn 0.000000 -1.000000 -0.000000
vn 0.000000 -1.000000 -0.000000
vn 0.000000 -1.000000 -0.000000
vn 0.000000 -1.000000 -0.000000
vn 1.000000 0.000000 -0.000161
vn 1.000000 0.000000 -0.000161
vn 1.000000 0.000000 -0.000161
vn 1.000000 0.000000 -0.000161
vn -1.000000 0.000000 0.000161
vn -1.000000 0.000000 0.000161
vn -1.000000 0.000000 0.000161
vn -1.000000 0.000000 0.000161
vn 0.000159 0.000007 1.000000
vn 0.000159 0.000007 1.000000
vn 0.000159 0.000007 1.000000
vn 0.000159 0.000007 1.000000
vn 0.000159 0.000000 1.000000
vn 0.000159 0.000000 1.000000
vn 0.000159 0.000000 1.000000
vn 0.000159 0.000000 1.000000
vn 0.000159 -0.000007 1.000000
vn 0.000159 -0.000007 1.000000
vn 0.000159 -0.000007 1.000000
vn 0.000159 -0.000007 1.000000
vn 0.000173 0.000000 1.000000
vn 0.000173 0.000000 1.000000
vn 0.000173 0.000000 1.000000
vn 0.000173 0.000000 1.000000
vn 0.000000 1.000000 -0.000000
vn 0.000000 1.000000 -0.000000
vn 0.000000 1.000000 -0.000000
vn 0.000000 1.000000 -0.000000
vn 0.000000 1.000000 0.000000
vn 0.000000 1.000000 0.000000
vn 0.000000 1.000000 0.000000
vn 0.000000 1.000000 0.000000
vn 0.000000 1.000000 0.000000
vn 0.000000 1.000000 0.000000
vn -0.000158 -0.000004 -1.000000
vn -0.000166 -0.000004 -1.000000
vn -0.000166 -0.000004 -1.000000
vn -0.000158 -0.000004 -1.000000
vn -0.000166 0.000004 -1.000000
vn -0.000166 0.000004 -1.000000
vn -0.000158 0.000004 -1.000000
vn -0.000158 0.000004 -1.000000
vn 0.000000 -1.000000 0.000000
vn 0.000000 -1.000000 0.000000
vn 0.000000 -1.000000 0.000000
vn 0.000000 -1.000000 0.000000
vn 0.000000 -1.000000 0.000000
vn 0.000000 -1.000000 0.000000
vn 0.000000 -1.000000 0.000000
vn 0.000000 -1.000000 0.000000
vn 1.000000 0.000003 -0.000163
vn 1.000000 0.000003 -0.000158
vn 1.000000 0.000003 -0.000158
vn 1.000000 0.000003 -0.000163
vn 1.000000 -0.000003 -0.000158
vn 1.000000 -0.000003 -0.000158
vn 1.000000 -0.000003 -0.000163
vn 1.000000 -0.000003 -0.000163
vn -1.000000 -0.000004 0.000155
vn -1.000000 -0.000004 0.000163
vn -1.000000 -0.000004 0.000163
vn -1.000000 -0.000004 0.000155
vn -1.000000 0.000003 0.000163
vn -1.000000 0.000003 0.000163
vn -1.000000 0.000003 0.000155
vn -1.000000 0.000003 0.000155
vn 0.000059 0.927821 0.373025
vn 0.000059 0.927821 0.373025
vn 0.000059 0.927821 0.373025
vn 0.000059 0.927821 0.373025
vn -0.927758 0.000000 0.373183
vn -0.927758 0.000000 0.373183
vn -0.927758 0.000000 0.373183
vn -0.927758 0.000000 0.373183
vn 0.000059 -0.927821 0.373025
vn 0.000059 -0.927821 0.373025
vn 0.000059 -0.927821 0.373025
vn 0.000059 -0.927821 0.373025
vn 0.927882 0.000000 0.372873
vn 0.927882 0.000000 0.372873
vn 0.927882 0.000000 0.372873
vn 0.927882 0.000000 0.372873
vn -0.000150 0.373014 -0.927826
vn -0.000150 0.373014 -0.927826
vn -0.000150 0.373014 -0.927826
vn -0.000150 0.373014 -0.927826
vn -0.927827 0.373012 0.000147
vn -0.927827 0.373012 0.000147
vn -0.927827 0.373012 0.000147
vn -0.927826 0.373012 0.000147
vn 0.000148 0.373025 0.927821
vn 0.000148 0.373025 0.927821
vn 0.000148 0.373025 0.927821
vn 0.000148 0.373025 0.927821
vn 0.927829 0.373006 -0.000149
vn 0.927829 0.373006 -0.000149
vn 0.927829 0.373006 -0.000149
vn 0.927829 0.373006 -0.000149
vn -0.000059 -0.927817 -0.373035
vn -0.000059 -0.927817 -0.373035
vn -0.000059 -0.927817 -0.373035
vn -0.000059 -0.927817 -0.373035
vn -0.927875 0.000000 -0.372892
vn -0.927875 0.000000 -0.372892
vn -0.927875 0.000000 -0.372892
vn -0.927875 0.000000 -0.372892
vn -0.000059 0.927817 -0.373035
vn -0.000059 0.927817 -0.373035
vn -0.000059 0.927818 -0.373035
vn -0.000059 0.927818 -0.373035
vn 0.927767 0.000000 -0.373160
vn 0.927767 0.000000 -0.373160
vn 0.927767 0.000000 -0.373160
vn 0.927767 0.000000 -0.373160
vn 0.000148 -0.373025 0.927822
vn 0.000148 -0.373025 0.927822
vn 0.000148 -0.373025 0.927821
vn 0.000148 -0.373025 0.927822
vn -0.927827 -0.373012 0.000147
vn -0.927827 -0.373012 0.000147
vn -0.927827 -0.373012 0.000147
vn -0.927827 -0.373012 0.000147
vn -0.000150 -0.373013 -0.927826
vn -0.000150 -0.373013 -0.927826
vn -0.000150 -0.373013 -0.927826
vn -0.000150 -0.373013 -0.927826
vn 0.927829 -0.373006 -0.000149
vn 0.927829 -0.373006 -0.000149
vn 0.927829 -0.373006 -0.000149
vn 0.927829 -0.373006 -0.000149
vn 0.373032 0.927818 -0.000060
vn 0.373032 0.927818 -0.000060
vn 0.373032 0.927818 -0.000060
vn 0.373032 0.927819 -0.000060
vn 0.373188 0.000000 0.927756
vn 0.373188 0.000000 0.927756
vn 0.373188 0.000000 0.927756
vn 0.373188 0.000000 0.927756
vn 0.373032 -0.927818 -0.000060
vn 0.373032 -0.927818 -0.000060
vn 0.373032 -0.927818 -0.000060
vn 0.373032 -0.927818 -0.000060
vn 0.372990 0.000000 -0.927836
vn 0.372990 0.000000 -0.927836
vn 0.372990 0.000000 -0.927836
vn 0.372990 0.000000 -0.927836
vn -0.373020 0.927823 0.000060
vn -0.373020 0.927823 0.000060
vn -0.373020 0.927823 0.000060
vn -0.373020 0.927823 0.000060
vn -0.373174 0.000000 -0.927762
vn -0.373174 0.000000 -0.927762
vn -0.373174 0.000000 -0.927762
vn -0.373174 0.000000 -0.927762
vn -0.373020 -0.927823 0.000060
vn -0.373020 -0.927823 0.000060
vn -0.373020 -0.927823 0.000060
vn -0.373020 -0.927823 0.000060
vn -0.372861 0.000000 0.927887
vn -0.372861 0.000000 0.927887
vn -0.372861 0.000000 0.927887
vn -0.372861 0.000000 0.927887
s off
g pasted__pCube70 pasted__group13 group4
usemtl blinn6SG
f 33/1/1 34/2/2 35/3/3 36/4/4
f 37/5/5 38/6/6 39/7/7 40/8/8
f 41/9/9 42/10/10 43/11/11 44/12/12
f 45/13/13 46/14/14 47/15/15 48/16/16
f 50/17/17 49/18/18 51/19/19 52/20/20
f 53/21/21 54/22/22 55/23/23 56/24/24
f 1/62/25 2/60/26 10/27/27 9/28/28
f 2/60/29 4/65/30 11/30/31 10/27/32
f 4/65/33 3/70/34 12/32/35 11/30/36
f 3/70/37 1/62/38 9/28/39 12/32/40
s 1
f 3/69/41 4/66/42 14/33/43 13/34/44
f 4/66/45 6/67/46 15/36/47 14/33/48
f 6/67/46 5/72/49 16/38/50 15/36/47
f 5/72/49 3/69/41 13/34/44 16/38/50
s 3
f 5/71/51 6/68/52 18/39/53 17/40/54
f 6/68/52 8/57/55 19/42/56 18/39/53
f 8/57/55 7/61/57 20/44/58 19/42/56
f 7/61/57 5/71/51 17/40/54 20/44/58
s 4
f 7/63/59 8/58/60 22/45/61 21/46/62
f 8/58/60 2/59/63 23/47/64 22/45/61
f 2/59/63 1/64/65 24/48/66 23/47/64
f 1/64/65 7/63/59 21/46/62 24/48/66
s 5
f 2/26/67 8/41/68 25/49/69 26/50/70
f 8/41/68 6/35/71 27/51/72 25/49/69
f 6/35/71 4/29/73 28/52/74 27/51/72
f 4/29/73 2/26/67 26/50/70 28/52/74
s 6
f 7/43/75 1/25/76 30/53/77 29/54/78
f 1/25/76 3/31/79 31/55/80 30/53/77
f 3/31/79 5/37/81 32/56/82 31/55/80
f 5/37/81 7/43/75 29/54/78 32/56/82
s off
f 9/28/83 10/27/84 34/2/85 33/1/86
f 10/27/87 11/30/88 35/3/89 34/2/90
f 11/30/91 12/32/92 36/4/93 35/3/94
f 12/32/95 9/28/96 33/1/97 36/4/98
f 13/34/99 14/33/100 38/6/101 37/5/102
f 14/33/103 15/36/104 39/7/105 38/6/106
f 15/36/107 16/38/108 40/8/109 39/7/110
f 16/38/111 13/34/112 37/5/113 40/8/114
f 17/40/115 18/39/116 42/10/117 41/9/118
f 18/39/119 19/42/120 43/11/121 42/10/122
f 19/42/123 20/44/124 44/12/125 43/11/126
f 20/44/127 17/40/128 41/9/129 44/12/130
f 21/46/131 22/45/132 46/14/133 45/13/134
f 22/45/135 23/47/136 47/15/137 46/14/138
f 23/47/139 24/48/140 48/16/141 47/15/142
f 24/48/143 21/46/144 45/13/145 48/16/146
f 26/50/147 25/49/148 49/18/149 50/17/150
f 25/49/151 27/51/152 51/19/153 49/18/154
f 27/51/155 28/52/156 52/20/157 51/19/158
f 28/52/159 26/50/160 50/17/161 52/20/162
f 29/54/163 30/53/164 54/22/165 53/21/166
f 30/53/167 31/55/168 55/23/169 54/22/170
f 31/55/171 32/56/172 56/24/173 55/23/174
f 32/56/175 29/54/176 53/21/177 56/24/178
g default
v 25.027428 55.473793 29.489269
v 25.027428 4.755333 -21.229187
v 31.035240 55.473793 29.489269
v 31.035240 4.755333 -21.229187
v 31.035240 62.824299 22.138763
v 31.035240 12.105839 -28.579697
v 25.027428 62.824295 22.138763
v 25.027428 12.105839 -28.579697
vt 0.742373 0.492994
vt 0.742373 0.013000
vt 0.782578 0.013000
vt 0.782578 0.492994
vt 0.852142 0.013000
vt 0.852142 0.492994
vt 0.892346 0.013000
vt 0.892346 0.492994
vn 0.000000 -0.707107 0.707107
vn 0.000000 -0.707107 0.707107
vn 0.000000 -0.707107 0.707107
vn 0.000000 -0.707107 0.707107
vn 1.000000 0.000000 0.000000
vn 1.000000 0.000000 0.000000
vn 1.000000 0.000000 0.000000
vn 1.000000 0.000000 0.000000
vn -0.000000 0.707107 -0.707107
vn -0.000000 0.707107 -0.707107
vn -0.000000 0.707107 -0.707107
vn -0.000000 0.707107 -0.707107
s off
g polySurface179 pCube44
usemtl blinn6SG
f 57/73/179 58/74/180 60/75/181 59/76/182
f 59/76/183 60/75/184 62/77/185 61/78/186
f 61/78/187 62/77/188 64/79/189 63/80/190
g default
v -27.340462 53.111732 24.860294
v 23.377996 2.393272 24.860294
v -27.340462 53.111732 30.868107
v 23.377996 2.393272 30.868107
v -19.989954 60.462238 30.868111
v 30.728504 9.743778 30.868111
v -19.989954 60.462234 24.860298
v 30.728504 9.743778 24.860298
vt 0.744347 0.984452
vt 0.744347 0.504458
vt 0.784552 0.504458
vt 0.784552 0.984452
vt 0.854116 0.504458
vt 0.854116 0.984452
vt 0.894320 0.504458
vt 0.894320 0.984452
vn -0.707107 -0.707107 0.000000
vn -0.707107 -0.707107 0.000000
vn -0.707107 -0.707107 0.000000
vn -0.707107 -0.707107 0.000000
vn -0.000000 -0.000000 1.000000
vn -0.000000 -0.000000 1.000000
vn -0.000000 -0.000000 1.000000
vn -0.000000 -0.000000 1.000000
vn 0.707107 0.707107 -0.000000
vn 0.707107 0.707107 -0.000000
vn 0.707107 0.707107 -0.000000
vn 0.707107 0.707107 -0.000000
s off
g pCube44 polySurface178
usemtl blinn6SG
f 65/81/191 66/82/192 68/83/193 67/84/194
f 67/84/195 68/83/196 70/85/197 69/86/198
f 69/86/199 70/85/200 72/87/201 71/88/202
g default
v -21.683977 8.529289 29.034483
v 29.034483 8.529289 -21.683975
v -21.683977 2.521477 29.034483
v 29.034483 2.521477 -21.683975
v -29.034483 2.521477 21.683975
v 21.683977 2.521477 -29.034483
v -29.034483 8.529289 21.683975
v 21.683977 8.529289 -29.034483
vt 0.744347 0.984452
vt 0.744347 0.504458
vt 0.784551 0.984452
vt 0.784552 0.504458
vt 0.854116 0.984452
vt 0.854116 0.504458
vt 0.894320 0.984452
vt 0.894320 0.504458
vn 0.707107 0.000000 0.707107
vn 0.707107 0.000000 0.707107
vn 0.707107 0.000000 0.707107
vn 0.707107 0.000000 0.707107
vn 0.000000 -1.000000 -0.000000
vn 0.000000 -1.000000 -0.000000
vn 0.000000 -1.000000 -0.000000
vn 0.000000 -1.000000 -0.000000
vn -0.707107 0.000000 -0.707107
vn -0.707107 0.000000 -0.707107
vn -0.707107 0.000000 -0.707107
vn -0.707107 0.000000 -0.707107
s off
g pCube46
usemtl blinn6SG
f 73/89/203 75/91/204 76/92/205 74/90/206
f 75/91/207 77/93/208 78/94/209 76/92/210
f 77/93/211 79/95/212 80/96/213 78/94/214
g default
v -24.934362 55.473793 -29.417946
v -24.934362 4.755333 21.300511
v -30.942174 55.473793 -29.417946
v -30.942174 4.755333 21.300511
v -30.942174 62.824299 -22.067440
v -30.942174 12.105839 28.651020
v -24.934362 62.824295 -22.067440
v -24.934362 12.105839 28.651020
vt 0.742374 0.492994
vt 0.742374 0.013000
vt 0.782578 0.013000
vt 0.782578 0.492994
vt 0.852142 0.013000
vt 0.852142 0.492994
vt 0.892346 0.013000
vt 0.892346 0.492994
vn -0.000000 -0.707107 -0.707107
vn -0.000000 -0.707107 -0.707107
vn -0.000000 -0.707107 -0.707107
vn -0.000000 -0.707107 -0.707107
vn -1.000000 0.000000 0.000000
vn -1.000000 0.000000 0.000000
vn -1.000000 0.000000 0.000000
vn -1.000000 0.000000 0.000000
vn 0.000000 0.707107 0.707107
vn 0.000000 0.707107 0.707107
vn 0.000000 0.707107 0.707107
vn 0.000000 0.707107 0.707107
s off
g polySurface181 pCube45
usemtl blinn6SG
f 81/97/215 82/98/216 84/99/217 83/100/218
f 83/100/219 84/99/220 86/101/221 85/102/222
f 85/102/223 86/101/224 88/103/225 87/104/226
g default
v 27.433528 53.111732 -24.788971
v -23.284931 2.393272 -24.788971
v 27.433528 53.111732 -30.796783
v -23.284931 2.393272 -30.796783
v 20.083020 60.462238 -30.796787
v -30.635438 9.743778 -30.796787
v 20.083020 60.462234 -24.788975
v -30.635438 9.743778 -24.788975
vt 0.744347 0.984452
vt 0.744347 0.504458
vt 0.784552 0.504458
vt 0.784551 0.984452
vt 0.854116 0.504458
vt 0.854116 0.984452
vt 0.894320 0.504458
vt 0.894320 0.984452
vn 0.707107 -0.707107 -0.000000
vn 0.707107 -0.707107 -0.000000
vn 0.707107 -0.707107 -0.000000
vn 0.707107 -0.707107 -0.000000
vn 0.000000 -0.000000 -1.000000
vn 0.000000 -0.000000 -1.000000
vn 0.000000 -0.000000 -1.000000
vn 0.000000 -0.000000 -1.000000
vn -0.707107 0.707107 0.000000
vn -0.707107 0.707107 0.000000
vn -0.707107 0.707107 0.000000
vn -0.707107 0.707107 0.000000
s off
g pCube45 polySurface180
usemtl blinn6SG
f 89/105/227 90/106/228 92/107/229 91/108/230
f 91/108/231 92/107/232 94/109/233 93/110/234
f 93/110/235 94/109/236 96/111/237 95/112/238
g default
v -21.683977 58.395683 29.034483
v 29.034483 58.395683 -21.683975
v -21.683977 64.403496 29.034483
v 29.034483 64.403496 -21.683975
v -29.034483 64.403496 21.683975
v 21.683977 64.403496 -29.034483
v -29.034483 58.395683 21.683975
v 21.683977 58.395683 -29.034483
vt 0.742373 0.492994
vt 0.742373 0.013000
vt 0.782578 0.492994
vt 0.782578 0.013000
vt 0.852142 0.492994
vt 0.852142 0.013000
vt 0.892346 0.492994
vt 0.892346 0.013000
vn 0.707107 0.000000 0.707107
vn 0.707107 0.000000 0.707107
vn 0.707107 0.000000 0.707107
vn 0.707107 0.000000 0.707107
vn 0.000000 1.000000 -0.000000
vn 0.000000 1.000000 -0.000000
vn 0.000000 1.000000 -0.000000
vn 0.000000 1.000000 -0.000000
vn -0.707107 0.000000 -0.707107
vn -0.707107 0.000000 -0.707107
vn -0.707107 0.000000 -0.707107
vn -0.707107 0.000000 -0.707107
s off
g pCube41
usemtl blinn6SG
f 97/113/239 98/114/240 100/116/241 99/115/242
f 99/115/243 100/116/244 102/118/245 101/117/246
f 101/117/247 102/118/248 104/120/249 103/119/250
