# This file uses meters as units for non-parametric coordinates.

mtllib FloorWood_low.mtl
g default
v -50.000000 -1.092033 50.000000
v -37.500000 -1.092033 50.000000
v -25.000000 -1.092033 50.000000
v -12.500000 -1.092033 50.000000
v 0.000000 -1.092033 50.000000
v 12.500000 -1.092033 50.000000
v 25.000000 -1.092033 50.000000
v 37.500000 -1.092033 50.000000
v 50.000000 -1.092033 50.000000
v -50.000000 1.092033 50.000000
v -37.500000 1.092033 50.000000
v -25.000000 1.092033 50.000000
v -12.500000 1.092033 50.000000
v 0.000000 1.092033 50.000000
v 12.500000 1.092033 50.000000
v 25.000000 1.092033 50.000000
v 37.500000 1.092033 50.000000
v 50.000000 1.092033 50.000000
v -50.000000 1.092033 -50.000000
v -37.500000 1.092033 -50.000000
v -25.000000 1.092033 -50.000000
v -12.500000 1.092033 -50.000000
v 0.000000 1.092033 -50.000000
v 12.500000 1.092033 -50.000000
v 25.000000 1.092033 -50.000000
v 37.500000 1.092033 -50.000000
v 50.000000 1.092033 -50.000000
v -50.000000 -1.092033 -50.000000
v -37.500000 -1.092033 -50.000000
v -25.000000 -1.092033 -50.000000
v -12.500000 -1.092033 -50.000000
v 0.000000 -1.092033 -50.000000
v 12.500000 -1.092033 -50.000000
v 25.000000 -1.092033 -50.000000
v 37.500000 -1.092033 -50.000000
v 50.000000 -1.092033 -50.000000
v -50.000000 -1.092033 65.674011
v -37.500000 -1.092033 65.674011
v -37.500000 1.092033 65.674011
v -50.000000 1.092033 65.674011
v -25.000000 -1.092033 65.674011
v -12.500000 -1.092033 65.674011
v -12.500000 1.092033 65.674011
v -25.000000 1.092033 65.674011
v 0.000000 -1.092033 65.674011
v 12.500000 -1.092033 65.674011
v 12.500000 1.092033 65.674011
v 0.000000 1.092033 65.674011
v 25.000000 -1.092033 65.674011
v 37.500000 -1.092033 65.674011
v 37.500000 1.092033 65.674011
v 25.000000 1.092033 65.674011
v -37.500000 1.092033 -65.674011
v -25.000000 1.092033 -65.674011
v -25.000000 -1.092033 -65.674011
v -37.500000 -1.092033 -65.674011
v -12.500000 1.092033 -65.674011
v 0.000000 1.092033 -65.674011
v 0.000000 -1.092033 -65.674011
v -12.500000 -1.092033 -65.674011
v 12.500000 1.092033 -65.674011
v 25.000000 1.092033 -65.674011
v 25.000000 -1.092033 -65.674011
v 12.500000 -1.092033 -65.674011
v 37.500000 1.092033 -65.674011
v 50.000000 1.092033 -65.674011
v 50.000000 -1.092033 -65.674011
v 37.500000 -1.092033 -65.674011
vt 0.877526 0.843485
vt 0.772450 0.859178
vt 0.772440 0.843547
vt 0.861896 0.843493
vt 0.756749 0.731383
vt 0.232835 0.000000
vt 0.611275 0.743016
vt 0.772379 0.731374
vt 0.627148 0.856978
vt 0.520379 0.872855
vt 0.520380 0.856974
vt 0.611268 0.856977
vt 0.504511 0.743008
vt 0.737378 0.000000
vt 0.485145 0.743011
vt 0.520388 0.743009
vt 0.501032 0.856990
vt 0.394280 0.872869
vt 0.394279 0.856993
vt 0.485151 0.856988
vt 0.378375 0.743028
vt 0.106629 0.000000
vt 0.359027 0.742998
vt 0.394255 0.743025
vt 0.374913 0.856963
vt 0.268131 0.872848
vt 0.268132 0.856967
vt 0.359033 0.856965
vt 0.252254 0.742997
vt 0.984296 0.000000
vt 0.984298 0.015631
vt 0.268136 0.742998
vt 0.142008 0.742981
vt 0.861479 0.015630
vt 0.861841 0.731329
vt 0.232894 0.742974
vt 0.646501 0.743066
vt 0.737392 0.743063
vt 0.015885 0.742963
vt 0.106774 0.742944
vt 0.894900 0.731332
vt 0.984360 0.731324
vt 0.126127 0.742980
vt 0.861471 0.000000
vt 0.142008 0.856962
vt 0.232917 0.856957
vt 0.248797 0.856951
vt 0.142008 0.872850
vt 0.630624 0.743070
vt 0.611338 0.000004
vt 0.646515 0.857001
vt 0.737385 0.857001
vt 0.753259 0.857001
vt 0.646515 0.872875
vt 0.000000 0.742963
vt 0.485054 0.000000
vt 0.015896 0.856971
vt 0.106807 0.856948
vt 0.122694 0.856946
vt 0.015900 0.872856
vt 0.879270 0.731334
vt 0.359023 0.000000
vt 0.894913 0.843505
vt 0.984370 0.843494
vt 1.000000 0.843493
vt 0.894913 0.859136
vt 0.999991 0.731323
vt 0.877471 0.731321
vt 0.879283 0.843507
vt 0.984372 0.859125
vt 0.000010 0.856973
vt 0.106811 0.872833
vt 0.630639 0.857001
vt 0.737384 0.872875
vt 0.126125 0.856962
vt 0.232919 0.872844
vt 0.359034 0.872847
vt 0.252250 0.856966
vt 0.485152 0.872866
vt 0.378401 0.856998
vt 0.611268 0.872857
vt 0.504499 0.856973
vt 0.861906 0.859122
vt 0.756809 0.843556
vt 0.268133 0.000000
vt 0.122660 0.742939
vt 0.394162 0.000012
vt 0.753268 0.743066
vt 0.520441 0.000000
vt 0.248775 0.742971
vt 0.772010 0.000044
vt 0.877111 0.015624
vt 0.999928 0.015630
vt 0.894834 0.000009
vt 0.374908 0.742998
vt 0.015745 0.000020
vt 0.501026 0.743010
vt 0.646480 0.000000
vt 0.627156 0.743017
vt 0.141944 0.000007
vt 0.894835 0.015640
vt 0.268134 0.015881
vt 0.106633 0.015880
vt 0.359024 0.015880
vt 0.015749 0.015899
vt 0.394165 0.015894
vt 0.737379 0.015881
vt 0.485056 0.015882
vt 0.646481 0.015883
vt 0.520442 0.015881
vt 0.232837 0.015880
vt 0.611335 0.015888
vt 0.141948 0.015888
vt 0.772017 0.015676
vn 0.000000 0.000000 1.000000
vn 0.000000 0.000000 1.000000
vn 0.000000 0.000000 1.000000
vn 0.000000 0.000000 1.000000
vn 0.000000 0.000000 1.000000
vn 0.000000 0.000000 1.000000
vn 0.000000 0.000000 1.000000
vn 0.000000 0.000000 1.000000
vn 0.000000 0.000000 1.000000
vn 0.000000 0.000000 1.000000
vn 0.000000 0.000000 1.000000
vn 0.000000 0.000000 1.000000
vn 0.000000 0.000000 1.000000
vn 0.000000 0.000000 1.000000
vn 0.000000 0.000000 1.000000
vn 0.000000 0.000000 1.000000
vn 0.000000 0.000000 1.000000
vn 0.000000 0.000000 1.000000
vn 0.000000 0.000000 1.000000
vn 0.000000 0.000000 1.000000
vn 0.000000 0.000000 1.000000
vn 0.000000 0.000000 1.000000
vn 0.000000 0.000000 1.000000
vn 0.000000 0.000000 1.000000
vn 0.000000 0.000000 1.000000
vn 0.000000 0.000000 1.000000
vn 0.000000 0.000000 1.000000
vn 0.000000 0.000000 1.000000
vn 0.000000 0.000000 1.000000
vn 0.000000 0.000000 1.000000
vn 0.000000 0.000000 1.000000
vn 0.000000 0.000000 1.000000
vn 0.000000 1.000000 0.000000
vn 0.000000 1.000000 0.000000
vn 0.000000 1.000000 0.000000
vn 0.000000 1.000000 0.000000
vn 0.000000 1.000000 0.000000
vn 0.000000 1.000000 0.000000
vn 0.000000 1.000000 0.000000
vn 0.000000 1.000000 0.000000
vn 0.000000 1.000000 0.000000
vn 0.000000 1.000000 0.000000
vn 0.000000 1.000000 0.000000
vn 0.000000 1.000000 0.000000
vn 0.000000 1.000000 0.000000
vn 0.000000 1.000000 0.000000
vn 0.000000 1.000000 0.000000
vn 0.000000 1.000000 0.000000
vn 0.000000 1.000000 0.000000
vn 0.000000 1.000000 0.000000
vn 0.000000 0.000000 -1.000000
vn 0.000000 0.000000 -1.000000
vn 0.000000 0.000000 -1.000000
vn 0.000000 0.000000 -1.000000
vn 0.000000 0.000000 -1.000000
vn 0.000000 0.000000 -1.000000
vn 0.000000 0.000000 -1.000000
vn 0.000000 0.000000 -1.000000
vn 0.000000 0.000000 -1.000000
vn 0.000000 0.000000 -1.000000
vn 0.000000 0.000000 -1.000000
vn 0.000000 0.000000 -1.000000
vn 0.000000 0.000000 -1.000000
vn 0.000000 0.000000 -1.000000
vn 0.000000 0.000000 -1.000000
vn 0.000000 0.000000 -1.000000
vn 0.000000 0.000000 -1.000000
vn 0.000000 0.000000 -1.000000
vn 0.000000 0.000000 -1.000000
vn 0.000000 0.000000 -1.000000
vn 0.000000 0.000000 -1.000000
vn 0.000000 0.000000 -1.000000
vn 0.000000 0.000000 -1.000000
vn 0.000000 0.000000 -1.000000
vn 0.000000 0.000000 -1.000000
vn 0.000000 0.000000 -1.000000
vn 0.000000 0.000000 -1.000000
vn 0.000000 0.000000 -1.000000
vn 0.000000 0.000000 -1.000000
vn 0.000000 0.000000 -1.000000
vn 0.000000 0.000000 -1.000000
vn 0.000000 0.000000 -1.000000
vn 1.000000 0.000000 0.000000
vn 1.000000 0.000000 0.000000
vn 1.000000 0.000000 0.000000
vn 1.000000 0.000000 0.000000
vn -1.000000 0.000000 0.000000
vn -1.000000 0.000000 0.000000
vn -1.000000 0.000000 0.000000
vn -1.000000 0.000000 0.000000
vn 1.000000 0.000000 0.000000
vn 1.000000 0.000000 0.000000
vn 1.000000 0.000000 0.000000
vn 1.000000 0.000000 0.000000
vn 0.000000 1.000000 0.000000
vn 0.000000 1.000000 0.000000
vn -1.000000 0.000000 0.000000
vn -1.000000 0.000000 0.000000
vn 1.000000 0.000000 0.000000
vn 1.000000 0.000000 0.000000
vn 1.000000 0.000000 0.000000
vn 1.000000 0.000000 0.000000
vn 0.000000 1.000000 0.000000
vn 0.000000 1.000000 0.000000
vn -1.000000 0.000000 0.000000
vn -1.000000 0.000000 0.000000
vn -1.000000 0.000000 0.000000
vn -1.000000 0.000000 0.000000
vn 1.000000 0.000000 0.000000
vn 1.000000 0.000000 0.000000
vn 1.000000 0.000000 0.000000
vn 1.000000 0.000000 0.000000
vn 0.000000 1.000000 0.000000
vn 0.000000 1.000000 0.000000
vn -1.000000 0.000000 0.000000
vn -1.000000 0.000000 0.000000
vn -1.000000 0.000000 0.000000
vn -1.000000 0.000000 0.000000
vn 1.000000 0.000000 0.000000
vn 1.000000 0.000000 0.000000
vn 1.000000 0.000000 0.000000
vn 1.000000 0.000000 0.000000
vn 0.000000 1.000000 0.000000
vn 0.000000 1.000000 0.000000
vn -1.000000 0.000000 0.000000
vn -1.000000 0.000000 0.000000
vn -1.000000 0.000000 0.000000
vn -1.000000 0.000000 0.000000
vn 0.000000 1.000000 0.000000
vn 0.000000 1.000000 0.000000
vn 1.000000 0.000000 0.000000
vn 1.000000 0.000000 0.000000
vn 1.000000 0.000000 0.000000
vn 1.000000 0.000000 0.000000
vn -1.000000 0.000000 0.000000
vn -1.000000 0.000000 0.000000
vn -1.000000 0.000000 0.000000
vn -1.000000 0.000000 0.000000
vn 0.000000 1.000000 0.000000
vn 0.000000 1.000000 0.000000
vn 1.000000 0.000000 0.000000
vn 1.000000 0.000000 0.000000
vn 1.000000 0.000000 0.000000
vn 1.000000 0.000000 0.000000
vn -1.000000 0.000000 0.000000
vn -1.000000 0.000000 0.000000
vn -1.000000 0.000000 0.000000
vn -1.000000 0.000000 0.000000
vn 0.000000 1.000000 0.000000
vn 0.000000 1.000000 0.000000
vn 1.000000 0.000000 0.000000
vn 1.000000 0.000000 0.000000
vn 1.000000 0.000000 0.000000
vn 1.000000 0.000000 0.000000
vn -1.000000 0.000000 0.000000
vn -1.000000 0.000000 0.000000
vn -1.000000 0.000000 0.000000
vn -1.000000 0.000000 0.000000
vn 0.000000 1.000000 0.000000
vn 0.000000 1.000000 0.000000
vn 1.000000 0.000000 0.000000
vn 1.000000 0.000000 0.000000
vn -1.000000 0.000000 0.000000
vn -1.000000 0.000000 0.000000
vn -1.000000 0.000000 0.000000
vn -1.000000 0.000000 0.000000
s off
g pasted__pCube1 group13
usemtl blinn17SG
f 37/83/1 38/2/2 39/3/3 40/4/4
f 2/100/5 3/6/6 12/111/7 11/113/8
f 41/81/9 42/10/10 43/11/11 44/12/12
f 4/98/13 5/14/14 14/107/15 13/109/16
f 45/79/17 46/18/18 47/19/19 48/20/20
f 6/96/21 7/22/22 16/103/23 15/105/24
f 49/77/25 50/26/26 51/27/27 52/28/28
f 8/94/29 9/30/30 18/31/31 17/101/32
s 1
f 11/8/33 20/114/34 19/34/35 10/35/36
f 12/111/37 21/36/38 20/33/34 11/113/33
f 13/16/39 22/110/40 21/112/38 12/7/37
f 14/107/41 23/38/42 22/37/40 13/109/39
f 15/24/43 24/106/44 23/108/42 14/15/41
f 16/103/45 25/40/46 24/39/44 15/105/43
f 17/32/47 26/102/48 25/104/46 16/23/45
f 27/42/49 26/41/48 17/101/47 18/31/50
s off
f 19/34/51 20/114/52 29/91/53 28/44/54
f 53/45/55 54/46/56 55/76/57 56/48/58
f 21/112/59 22/110/60 31/89/61 30/50/62
f 57/51/63 58/52/64 59/74/65 60/54/66
f 23/108/67 24/106/68 33/87/69 32/56/70
f 61/57/71 62/58/72 63/72/73 64/60/74
f 25/104/75 26/102/76 35/85/77 34/62/78
f 65/63/79 66/64/80 67/70/81 68/66/82
s 2
f 27/42/83 18/31/84 9/93/85 36/67/86
s 3
f 10/35/87 19/34/88 28/92/89 1/68/90
s off
f 2/5/91 11/8/92 39/3/93 38/84/94
s 1
f 11/8/33 10/35/36 40/4/95 39/3/96
s 3
f 10/35/87 1/68/90 37/1/97 40/4/98
s off
f 4/13/99 13/16/100 43/11/101 42/82/102
s 1
f 13/16/39 12/7/37 44/12/103 43/11/104
s off
f 12/7/105 3/99/106 41/9/107 44/12/108
f 6/21/109 15/24/110 47/19/111 46/80/112
s 1
f 15/24/43 14/15/41 48/20/113 47/19/114
s off
f 14/15/115 5/97/116 45/17/117 48/20/118
f 8/29/119 17/32/120 51/27/121 50/78/122
s 1
f 17/32/47 16/23/45 52/28/123 51/27/124
s off
f 16/23/125 7/95/126 49/25/127 52/28/128
s 1
f 20/33/34 21/36/38 54/46/129 53/45/130
s off
f 21/36/131 30/90/132 55/47/133 54/46/134
f 29/43/135 20/33/136 53/45/137 56/75/138
s 1
f 22/37/40 23/38/42 58/52/139 57/51/140
s off
f 23/38/141 32/88/142 59/53/143 58/52/144
f 31/49/145 22/37/146 57/51/147 60/73/148
s 1
f 24/39/44 25/40/46 62/58/149 61/57/150
s off
f 25/40/151 34/86/152 63/59/153 62/58/154
f 33/55/155 24/39/156 61/57/157 64/71/158
s 1
f 26/41/48 27/42/49 66/64/159 65/63/160
s 2
f 27/42/83 36/67/86 67/65/161 66/64/162
s off
f 35/61/163 26/41/164 65/63/165 68/69/166
