# This file uses meters as units for non-parametric coordinates.

mtllib ShelfShort_low.mtl
g default
v 30.041458 54.664246 14.586975
v 40.324295 54.664246 14.586975
v 30.041458 64.051025 14.586975
v 40.324295 64.051025 14.586975
v 30.041458 64.051025 -14.586975
v 40.324295 64.051025 -14.586975
v 30.041458 54.664246 -14.586975
v 40.324295 54.664246 -14.586975
v -49.999985 64.135635 12.329956
v 50.000000 64.135635 12.329956
v -49.999985 70.653336 12.329956
v 50.000000 70.653336 12.329956
v -49.999985 70.653336 -13.234619
v 50.000000 70.653336 -13.234619
v -49.999985 64.135635 -13.234619
v 50.000000 64.135635 -13.234619
v -30.041473 54.664246 14.586975
v -40.324295 54.664246 14.586975
v -30.041473 64.051025 14.586975
v -40.324295 64.051025 14.586975
v -30.041473 64.051025 -14.586975
v -40.324295 64.051025 -14.586975
v -30.041473 54.664246 -14.586975
v -40.324295 54.664246 -14.586975
vt 0.146353 0.780672
vt 0.081162 0.780672
vt 0.081162 0.721161
vt 0.146353 0.721161
vt 0.205865 0.780672
vt 0.271056 0.780672
vt 0.271056 0.965630
vt 0.205865 0.965630
vt 0.146354 0.965630
vt 0.081162 0.965630
vt 0.021651 0.965630
vt 0.021651 0.780672
vt 0.048323 0.485824
vt 0.682308 0.485825
vt 0.682308 0.527146
vt 0.048323 0.527146
vt 0.682308 0.689221
vt 0.048323 0.689221
vt 0.048323 0.323749
vt 0.682308 0.323749
vt 0.723630 0.323749
vt 0.723630 0.485824
vt 0.007002 0.485824
vt 0.007002 0.323749
vt 0.481454 0.782002
vt 0.481451 0.722492
vt 0.546642 0.722488
vt 0.546646 0.782000
vt 0.421943 0.782001
vt 0.421943 0.966959
vt 0.356752 0.966960
vt 0.356751 0.782001
vt 0.481454 0.966959
vt 0.546646 0.966960
vt 0.606157 0.782001
vt 0.606156 0.966960
vn 0.000000 0.000000 1.000000
vn 0.000000 0.000000 1.000000
vn 0.000000 0.000000 1.000000
vn 0.000000 0.000000 1.000000
vn 0.000000 1.000000 0.000000
vn 0.000000 1.000000 0.000000
vn 0.000000 1.000000 0.000000
vn 0.000000 1.000000 0.000000
vn 0.000000 -1.000000 0.000000
vn 0.000000 -1.000000 0.000000
vn 0.000000 -1.000000 0.000000
vn 0.000000 -1.000000 0.000000
vn 1.000000 0.000000 0.000000
vn 1.000000 0.000000 0.000000
vn 1.000000 0.000000 0.000000
vn 1.000000 0.000000 0.000000
vn -1.000000 0.000000 0.000000
vn -1.000000 0.000000 0.000000
vn -1.000000 0.000000 0.000000
vn -1.000000 0.000000 0.000000
vn 0.000000 0.000000 1.000000
vn 0.000000 0.000000 1.000000
vn 0.000000 0.000000 1.000000
vn 0.000000 0.000000 1.000000
vn 0.000000 1.000000 0.000000
vn 0.000000 1.000000 0.000000
vn 0.000000 1.000000 0.000000
vn 0.000000 1.000000 0.000000
vn 0.000000 -1.000000 0.000000
vn 0.000000 -1.000000 0.000000
vn 0.000000 -1.000000 0.000000
vn 0.000000 -1.000000 0.000000
vn 1.000000 0.000000 0.000000
vn 1.000000 0.000000 0.000000
vn 1.000000 0.000000 0.000000
vn 1.000000 0.000000 0.000000
vn -1.000000 0.000000 0.000000
vn -1.000000 0.000000 0.000000
vn -1.000000 0.000000 0.000000
vn -1.000000 0.000000 0.000000
vn 0.000000 0.000000 1.000000
vn 0.000000 0.000000 1.000000
vn 0.000000 0.000000 1.000000
vn 0.000000 0.000000 1.000000
vn 0.000000 1.000000 0.000000
vn 0.000000 1.000000 0.000000
vn 0.000000 1.000000 0.000000
vn 0.000000 1.000000 0.000000
vn 0.000000 -1.000000 0.000000
vn 0.000000 -1.000000 0.000000
vn 0.000000 -1.000000 0.000000
vn 0.000000 -1.000000 0.000000
vn -1.000000 0.000000 0.000000
vn -1.000000 0.000000 0.000000
vn -1.000000 0.000000 0.000000
vn -1.000000 0.000000 0.000000
vn 1.000000 0.000000 0.000000
vn 1.000000 0.000000 0.000000
vn 1.000000 0.000000 0.000000
vn 1.000000 0.000000 0.000000
s off
g polySurface148
usemtl blinn10SG
f 1/1/1 2/2/2 4/3/3 3/4/4
f 3/5/5 4/6/6 6/7/7 5/8/8
f 7/9/9 8/10/10 2/2/11 1/1/12
f 2/2/13 8/10/14 6/11/15 4/12/16
f 7/9/17 1/1/18 3/5/19 5/8/20
f 9/13/21 10/14/22 12/15/23 11/16/24
f 11/16/25 12/15/26 14/17/27 13/18/28
f 15/19/29 16/20/30 10/14/31 9/13/32
f 10/14/33 16/20/34 14/21/35 12/22/36
f 15/19/37 9/13/38 11/23/39 13/24/40
f 17/25/41 19/26/42 20/27/43 18/28/44
f 19/29/45 21/30/46 22/31/47 20/32/48
f 23/33/49 17/25/50 18/28/51 24/34/52
f 18/28/53 20/35/54 22/36/55 24/34/56
f 23/33/57 21/30/58 19/29/59 17/25/60
