# This file uses meters as units for non-parametric coordinates.

mtllib Shelfmerged_low.mtl
g default
v 30.041458 54.664246 14.586975
v 40.324295 54.664246 14.586975
v 30.041458 64.051025 14.586975
v 40.324295 64.051025 14.586975
v 30.041458 64.051025 -14.586975
v 40.324295 64.051025 -14.586975
v 30.041458 54.664246 -14.586975
v 40.324295 54.664246 -14.586975
v -49.999985 64.135635 12.329956
v 50.000000 64.135635 12.329956
v -49.999985 70.653336 12.329956
v 50.000000 70.653336 12.329956
v -49.999985 70.653336 -13.234619
v 50.000000 70.653336 -13.234619
v -49.999985 64.135635 -13.234619
v 50.000000 64.135635 -13.234619
v -30.041473 54.664246 14.586975
v -40.324295 54.664246 14.586975
v -30.041473 64.051025 14.586975
v -40.324295 64.051025 14.586975
v -30.041473 64.051025 -14.586975
v -40.324295 64.051025 -14.586975
v -30.041473 54.664246 -14.586975
v -40.324295 54.664246 -14.586975
vt 0.146353 0.780672
vt 0.081162 0.780672
vt 0.081162 0.721161
vt 0.146353 0.721161
vt 0.205865 0.780672
vt 0.271056 0.780672
vt 0.271056 0.965630
vt 0.205865 0.965630
vt 0.146354 0.965630
vt 0.081162 0.965630
vt 0.021651 0.965630
vt 0.021651 0.780672
vt 0.048323 0.485824
vt 0.682308 0.485825
vt 0.682308 0.527146
vt 0.048323 0.527146
vt 0.682308 0.689221
vt 0.048323 0.689221
vt 0.048323 0.323749
vt 0.682308 0.323749
vt 0.723630 0.323749
vt 0.723630 0.485824
vt 0.007002 0.485824
vt 0.007002 0.323749
vt 0.481454 0.782002
vt 0.481451 0.722492
vt 0.546642 0.722488
vt 0.546646 0.782000
vt 0.421943 0.782001
vt 0.421943 0.966959
vt 0.356752 0.966960
vt 0.356751 0.782001
vt 0.481454 0.966959
vt 0.546646 0.966960
vt 0.606157 0.782001
vt 0.606156 0.966960
vn 0.000000 0.000000 1.000000
vn 0.000000 0.000000 1.000000
vn 0.000000 0.000000 1.000000
vn 0.000000 0.000000 1.000000
vn 0.000000 1.000000 0.000000
vn 0.000000 1.000000 0.000000
vn 0.000000 1.000000 0.000000
vn 0.000000 1.000000 0.000000
vn 0.000000 -1.000000 0.000000
vn 0.000000 -1.000000 0.000000
vn 0.000000 -1.000000 0.000000
vn 0.000000 -1.000000 0.000000
vn 1.000000 0.000000 0.000000
vn 1.000000 0.000000 0.000000
vn 1.000000 0.000000 0.000000
vn 1.000000 0.000000 0.000000
vn -1.000000 0.000000 0.000000
vn -1.000000 0.000000 0.000000
vn -1.000000 0.000000 0.000000
vn -1.000000 0.000000 0.000000
vn 0.000000 0.000000 1.000000
vn 0.000000 0.000000 1.000000
vn 0.000000 0.000000 1.000000
vn 0.000000 0.000000 1.000000
vn 0.000000 1.000000 0.000000
vn 0.000000 1.000000 0.000000
vn 0.000000 1.000000 0.000000
vn 0.000000 1.000000 0.000000
vn 0.000000 -1.000000 0.000000
vn 0.000000 -1.000000 0.000000
vn 0.000000 -1.000000 0.000000
vn 0.000000 -1.000000 0.000000
vn 1.000000 0.000000 0.000000
vn 1.000000 0.000000 0.000000
vn 1.000000 0.000000 0.000000
vn 1.000000 0.000000 0.000000
vn -1.000000 0.000000 0.000000
vn -1.000000 0.000000 0.000000
vn -1.000000 0.000000 0.000000
vn -1.000000 0.000000 0.000000
vn 0.000000 0.000000 1.000000
vn 0.000000 0.000000 1.000000
vn 0.000000 0.000000 1.000000
vn 0.000000 0.000000 1.000000
vn 0.000000 1.000000 0.000000
vn 0.000000 1.000000 0.000000
vn 0.000000 1.000000 0.000000
vn 0.000000 1.000000 0.000000
vn 0.000000 -1.000000 0.000000
vn 0.000000 -1.000000 0.000000
vn 0.000000 -1.000000 0.000000
vn 0.000000 -1.000000 0.000000
vn -1.000000 0.000000 0.000000
vn -1.000000 0.000000 0.000000
vn -1.000000 0.000000 0.000000
vn -1.000000 0.000000 0.000000
vn 1.000000 0.000000 0.000000
vn 1.000000 0.000000 0.000000
vn 1.000000 0.000000 0.000000
vn 1.000000 0.000000 0.000000
s off
g polySurface148
usemtl blinn10SG
f 1/1/1 2/2/2 4/3/3 3/4/4
f 3/5/5 4/6/6 6/7/7 5/8/8
f 7/9/9 8/10/10 2/2/11 1/1/12
f 2/2/13 8/10/14 6/11/15 4/12/16
f 7/9/17 1/1/18 3/5/19 5/8/20
f 9/13/21 10/14/22 12/15/23 11/16/24
f 11/16/25 12/15/26 14/17/27 13/18/28
f 15/19/29 16/20/30 10/14/31 9/13/32
f 10/14/33 16/20/34 14/21/35 12/22/36
f 15/19/37 9/13/38 11/23/39 13/24/40
f 17/25/41 19/26/42 20/27/43 18/28/44
f 19/29/45 21/30/46 22/31/47 20/32/48
f 23/33/49 17/25/50 18/28/51 24/34/52
f 18/28/53 20/35/54 22/36/55 24/34/56
f 23/33/57 21/30/58 19/29/59 17/25/60
g default
v -83.920738 34.079620 12.329956
v 83.920746 34.079620 12.329956
v -83.920738 40.597321 12.329956
v 83.920746 40.597321 12.329956
v -83.920738 40.597321 -13.234619
v 83.920746 40.597321 -13.234619
v -83.920738 34.079620 -13.234619
v 83.920746 34.079620 -13.234619
v -3.266857 24.608231 14.587036
v 7.015980 24.608231 14.587036
v -3.266857 33.995010 14.587036
v 7.015980 33.995010 14.587036
v -3.266857 33.995010 -14.586914
v 7.015980 33.995010 -14.586914
v -3.266857 24.608231 -14.586914
v 7.015980 24.608231 -14.586914
v -60.506065 24.608231 14.587036
v -70.788895 24.608231 14.587036
v -60.506065 33.995010 14.587036
v -70.788895 33.995010 14.587036
v -60.506065 33.995010 -14.586914
v -70.788895 33.995010 -14.586914
v -60.506065 24.608231 -14.586914
v -70.788895 24.608231 -14.586914
v 61.238285 24.608231 14.587036
v 71.521133 24.608231 14.587036
v 61.238285 33.995010 14.587036
v 71.521133 33.995010 14.587036
v 61.238285 33.995010 -14.586914
v 71.521133 33.995010 -14.586914
v 61.238285 24.608231 -14.586914
v 71.521133 24.608231 -14.586914
vt 0.036034 0.141338
vt 0.963966 0.141337
vt 0.963966 0.177372
vt 0.036034 0.177372
vt 0.963966 0.318708
vt 0.036034 0.318708
vt 0.036034 0.000000
vt 0.963966 0.000000
vt 1.000000 0.000000
vt 1.000000 0.141337
vt 0.000000 0.141338
vt 0.000000 0.000000
vt 0.836691 0.780672
vt 0.771500 0.780671
vt 0.771500 0.721161
vt 0.836691 0.721161
vt 0.896201 0.780672
vt 0.961392 0.780672
vt 0.961392 0.965631
vt 0.896201 0.965631
vt 0.836690 0.965630
vt 0.771498 0.965630
vt 0.711987 0.965629
vt 0.711989 0.780671
vt 0.833881 0.507070
vt 0.833881 0.447560
vt 0.899073 0.447560
vt 0.899072 0.507070
vt 0.774371 0.507070
vt 0.774370 0.692029
vt 0.709179 0.692028
vt 0.709180 0.507070
vt 0.833881 0.692029
vt 0.899072 0.692029
vt 0.958583 0.507070
vt 0.958583 0.692029
vt 0.546646 0.782001
vt 0.481454 0.782000
vt 0.481455 0.722489
vt 0.546646 0.722490
vt 0.356752 0.782000
vt 0.421943 0.782000
vt 0.421943 0.966959
vt 0.356752 0.966959
vt 0.546646 0.966959
vt 0.481454 0.966959
vt 0.606156 0.782000
vt 0.606156 0.966959
vn 0.000000 0.000000 1.000000
vn 0.000000 0.000000 1.000000
vn 0.000000 0.000000 1.000000
vn 0.000000 0.000000 1.000000
vn 0.000000 1.000000 0.000000
vn 0.000000 1.000000 0.000000
vn 0.000000 1.000000 0.000000
vn 0.000000 1.000000 0.000000
vn 0.000000 -1.000000 0.000000
vn 0.000000 -1.000000 0.000000
vn 0.000000 -1.000000 0.000000
vn 0.000000 -1.000000 0.000000
vn 1.000000 0.000000 0.000000
vn 1.000000 0.000000 0.000000
vn 1.000000 0.000000 0.000000
vn 1.000000 0.000000 0.000000
vn -1.000000 0.000000 0.000000
vn -1.000000 0.000000 0.000000
vn -1.000000 0.000000 0.000000
vn -1.000000 0.000000 0.000000
vn 0.000000 0.000000 1.000000
vn 0.000000 0.000000 1.000000
vn 0.000000 0.000000 1.000000
vn 0.000000 0.000000 1.000000
vn 0.000000 1.000000 0.000000
vn 0.000000 1.000000 0.000000
vn 0.000000 1.000000 0.000000
vn 0.000000 1.000000 0.000000
vn 0.000000 -1.000000 0.000000
vn 0.000000 -1.000000 0.000000
vn 0.000000 -1.000000 0.000000
vn 0.000000 -1.000000 0.000000
vn 1.000000 0.000000 0.000000
vn 1.000000 0.000000 0.000000
vn 1.000000 0.000000 0.000000
vn 1.000000 0.000000 0.000000
vn -1.000000 0.000000 0.000000
vn -1.000000 0.000000 0.000000
vn -1.000000 0.000000 0.000000
vn -1.000000 0.000000 0.000000
vn 0.000000 0.000000 1.000000
vn 0.000000 0.000000 1.000000
vn 0.000000 0.000000 1.000000
vn 0.000000 0.000000 1.000000
vn 0.000000 1.000000 0.000000
vn 0.000000 1.000000 0.000000
vn 0.000000 1.000000 0.000000
vn 0.000000 1.000000 0.000000
vn 0.000000 -1.000000 0.000000
vn 0.000000 -1.000000 0.000000
vn 0.000000 -1.000000 0.000000
vn 0.000000 -1.000000 0.000000
vn -1.000000 0.000000 0.000000
vn -1.000000 0.000000 0.000000
vn -1.000000 0.000000 0.000000
vn -1.000000 0.000000 0.000000
vn 1.000000 0.000000 0.000000
vn 1.000000 0.000000 0.000000
vn 1.000000 0.000000 0.000000
vn 1.000000 0.000000 0.000000
vn 0.000000 0.000000 1.000000
vn 0.000000 0.000000 1.000000
vn 0.000000 0.000000 1.000000
vn 0.000000 0.000000 1.000000
vn 0.000000 1.000000 0.000000
vn 0.000000 1.000000 0.000000
vn 0.000000 1.000000 0.000000
vn 0.000000 1.000000 0.000000
vn 0.000000 -1.000000 0.000000
vn 0.000000 -1.000000 0.000000
vn 0.000000 -1.000000 0.000000
vn 0.000000 -1.000000 0.000000
vn 1.000000 0.000000 0.000000
vn 1.000000 0.000000 0.000000
vn 1.000000 0.000000 0.000000
vn 1.000000 0.000000 0.000000
vn -1.000000 0.000000 0.000000
vn -1.000000 0.000000 0.000000
vn -1.000000 0.000000 0.000000
vn -1.000000 0.000000 0.000000
s off
g polySurface146
usemtl blinn10SG
f 25/37/61 26/38/62 28/39/63 27/40/64
f 27/40/65 28/39/66 30/41/67 29/42/68
f 31/43/69 32/44/70 26/38/71 25/37/72
f 26/38/73 32/44/74 30/45/75 28/46/76
f 31/43/77 25/37/78 27/47/79 29/48/80
f 33/49/81 34/50/82 36/51/83 35/52/84
f 35/53/85 36/54/86 38/55/87 37/56/88
f 39/57/89 40/58/90 34/50/91 33/49/92
f 34/50/93 40/58/94 38/59/95 36/60/96
f 39/57/97 33/49/98 35/53/99 37/56/100
f 41/61/101 43/62/102 44/63/103 42/64/104
f 43/65/105 45/66/106 46/67/107 44/68/108
f 47/69/109 41/61/110 42/64/111 48/70/112
f 42/64/113 44/71/114 46/72/115 48/70/116
f 47/69/117 45/66/118 43/65/119 41/61/120
f 49/73/121 50/74/122 52/75/123 51/76/124
f 51/77/125 52/78/126 54/79/127 53/80/128
f 55/81/129 56/82/130 50/74/131 49/73/132
f 50/74/133 56/82/134 54/79/135 52/78/136
f 55/81/137 49/73/138 51/83/139 53/84/140
