# This file uses meters as units for non-parametric coordinates.

mtllib Stool_low.mtl
g default
v -20.280075 24.396126 5.953369
v -19.668549 23.637808 4.132324
v -18.720459 24.415672 2.470642
v -17.991150 26.274055 1.941650
v -17.907883 28.124340 2.855347
v -18.519394 28.882658 4.676392
v -19.467499 28.104794 6.338074
v -20.196793 26.246414 6.867065
v 18.089981 24.560425 21.245605
v 18.836151 23.780817 19.484680
v 19.649597 24.579971 17.762817
v 20.053787 26.489754 17.088562
v 19.811966 28.391436 17.856934
v 19.065781 29.171043 19.617798
v 18.252335 28.371891 21.339661
v 17.848145 26.462109 22.013916
vt 0.829286 0.626079
vt 0.847583 0.625071
vt 0.848394 0.992879
vt 0.830071 0.992580
vt 0.703222 0.625041
vt 0.721384 0.627480
vt 0.720264 0.993980
vt 0.701975 0.992848
vt 0.739174 0.631873
vt 0.738547 0.995220
vt 0.757100 0.635676
vt 0.756860 0.995869
vt 0.775399 0.636662
vt 0.775182 0.995548
vt 0.793564 0.634253
vt 0.793474 0.994446
vt 0.811358 0.629871
vt 0.811757 0.993218
vn -0.244996 -0.743010 0.622826
vn 0.001341 -0.999977 0.006663
vn 0.008947 -0.999883 -0.012418
vn -0.255191 -0.717414 0.648224
vn 0.250715 -0.742331 -0.621358
vn 0.268413 -0.695801 -0.666195
vn 0.369450 -0.049783 -0.927916
vn 0.369426 0.022853 -0.928979
vn 0.261976 0.693857 -0.670769
vn 0.252697 0.718527 -0.647968
vn -0.011745 0.999871 0.010989
vn -0.004316 0.999961 -0.007695
vn -0.278165 0.670993 0.687308
vn -0.261816 0.717665 0.645298
vn -0.368816 -0.073349 0.926604
vn -0.370143 0.000166 0.928975
s 1
g polySurface156 pasted__pCylinder22 pasted__group13 group14
usemtl blinn11SG
f 1/1/1 2/2/2 10/3/3 9/4/4
f 2/5/2 3/6/5 11/7/6 10/8/3
f 3/6/5 4/9/7 12/10/8 11/7/6
f 4/9/7 5/11/9 13/12/10 12/10/8
f 5/11/9 6/13/11 14/14/12 13/12/10
f 6/13/11 7/15/13 15/16/14 14/14/12
f 7/15/13 8/17/15 16/18/16 15/16/14
f 8/17/15 1/1/1 9/4/4 16/18/16
g default
v 21.485504 20.258091 19.670898
v 19.577469 19.483868 19.829712
v 17.669434 20.258091 19.670898
v 16.879089 22.127232 19.287598
v 17.669434 23.996372 18.904236
v 19.577469 24.770596 18.745483
v 21.485504 23.996372 18.904236
v 22.275848 22.127232 19.287598
v 18.208115 19.117975 -20.239990
v 16.300079 18.327709 -20.229370
v 14.392029 19.117975 -20.239990
v 13.601700 21.025845 -20.265625
v 14.392029 22.933714 -20.291199
v 16.300079 23.723980 -20.301819
v 18.208115 22.933714 -20.291199
v 18.998459 21.025845 -20.265625
vt 0.872269 0.422945
vt 0.853945 0.422787
vt 0.853658 0.066009
vt 0.871923 0.067482
vt 0.999175 0.422784
vt 0.981040 0.420156
vt 0.981722 0.064693
vt 1.000000 0.066007
vt 0.963057 0.416632
vt 0.963401 0.064339
vt 0.944886 0.414264
vt 0.945094 0.065143
vt 0.926562 0.414446
vt 0.926830 0.066639
vt 0.908425 0.417067
vt 0.908551 0.067946
vt 0.890441 0.420585
vt 0.890230 0.068293
vn 0.688400 -0.724439 -0.035973
vn 0.020630 -0.999422 0.027007
vn -0.019799 -0.999344 0.030318
vn 0.688281 -0.724553 -0.035960
vn -0.672218 -0.736403 0.076383
vn -0.712838 -0.696911 0.078600
vn -0.995899 -0.034584 0.083597
vn -0.996574 0.003445 0.082629
vn -0.712176 0.700839 0.040377
vn -0.713534 0.699447 0.040527
vn 0.019449 0.999403 -0.028571
vn -0.020160 0.999478 -0.025255
vn 0.736748 0.671461 -0.079643
vn 0.698073 0.711819 -0.077512
vn 0.995264 -0.054087 -0.080772
vn 0.996529 -0.014240 -0.082022
s 1
g pasted__pCylinder22 pasted__group13 group14 polySurface152
usemtl blinn11SG
f 17/19/17 18/20/18 26/21/19 25/22/20
f 18/23/18 19/24/21 27/25/22 26/26/19
f 19/24/21 20/27/23 28/28/24 27/25/22
f 20/27/23 21/29/25 29/30/26 28/28/24
f 21/29/25 22/31/27 30/32/28 29/30/26
f 22/31/27 23/33/29 31/34/30 30/32/28
f 23/33/29 24/35/31 32/36/32 31/34/30
f 24/35/31 17/19/17 25/22/20 32/36/32
g default
v -10.528442 52.682476 16.792908
v 19.653412 52.682476 16.792908
v -10.528458 65.687630 16.792908
v 19.653427 65.687630 16.792908
v -10.528458 65.687630 -13.388977
v 19.653427 65.687630 -13.388977
v -10.528458 52.682476 -13.388977
v 19.653427 52.682476 -13.388977
v -15.810272 64.451851 22.074707
v -15.810272 64.451843 -18.670776
v 24.935242 64.451843 -18.670776
v 24.935242 64.451843 22.074707
v -15.810272 53.913509 22.074707
v -15.810272 53.913509 -18.670776
v 24.935242 53.913509 -18.670776
v 24.935242 53.913509 22.074707
v 31.726166 53.913509 1.701965
v -22.601196 53.913509 1.701965
v -22.601196 64.451843 1.701965
v -15.150558 65.218674 21.414978
v -15.150558 65.218674 -18.011047
v 24.275528 65.218674 -18.011047
v 4.562485 64.451843 -25.461731
v 31.726166 64.451843 1.701965
v 24.275528 65.218674 21.414978
v 4.562485 64.451843 28.865662
v 4.562485 52.589737 22.074707
v 24.275528 53.149414 21.414978
v 4.562485 53.913509 28.865662
v -15.150558 53.149414 21.414978
v 4.562485 65.781082 22.074707
v 24.935242 65.781082 1.701965
v 4.562485 65.781082 -18.670776
v -15.810272 65.781082 1.701965
v 4.562485 53.913509 -25.461731
v 24.275528 53.149414 -18.011047
v 4.562485 52.589737 -18.670776
v -15.150558 53.149414 -18.011047
v 24.935242 52.589737 1.701965
v -15.810272 52.589737 1.701965
v 4.562485 53.149414 27.986023
v 4.562485 65.901230 1.701965
v 4.562485 53.149414 -24.582031
v 4.562485 52.470497 1.701965
v 30.846542 53.149414 1.701965
v -21.721573 53.149414 1.701965
v -21.721573 65.218674 1.701965
v 4.562485 65.218674 -24.582031
v 30.846542 65.218674 1.701965
v 4.562485 65.218674 27.986023
vt 0.244752 0.575360
vt 0.198106 0.636649
vt 0.170823 0.627903
vt 0.230196 0.546817
vt 0.200142 0.713437
vt 0.172200 0.727789
vt 0.167057 0.730431
vt 0.165458 0.626188
vt 0.227551 0.541634
vt 0.063474 0.382521
vt 0.060414 0.239521
vt 0.232622 0.296256
vt 0.176574 0.468518
vt 0.147090 0.127010
vt 0.288991 0.124344
vt 0.401453 0.210685
vt 0.404476 0.352398
vt 0.318442 0.465107
vt 0.415893 0.603535
vt 0.416785 0.707562
vt 0.411459 0.705824
vt 0.410734 0.606145
vt 0.354731 0.791023
vt 0.352108 0.785879
vt 0.337858 0.757939
vt 0.384359 0.696990
vt 0.382708 0.620334
vt 0.291358 0.666756
vt 0.321751 0.573597
vt 0.261221 0.759789
vt 0.252457 0.786913
vt 0.250735 0.792245
vt 0.330693 0.546378
vt 0.332455 0.541028
vt 0.349684 0.526367
vt 0.157116 0.528680
vt 0.160315 0.518785
vt 0.344821 0.516835
vt 0.001906 0.413814
vt 0.011491 0.408934
vt 0.454593 0.368738
vt 0.453220 0.184479
vt 0.462760 0.179650
vt 0.464457 0.371955
vt 0.116132 0.065503
vt 0.308736 0.064389
vt 0.305488 0.074250
vt 0.120948 0.075078
vt 0.000138 0.219775
vt 0.010053 0.223031
vt 0.625003 0.000010
vt 0.750024 0.000005
vt 0.750025 0.061347
vt 0.625003 0.061352
vt 0.875008 0.000014
vt 0.875008 0.061353
vt 0.500014 0.061344
vt 0.500013 0.000010
vt 0.375038 0.061359
vt 0.375036 0.000011
vt 0.124986 0.000016
vt 0.249984 0.000000
vt 0.249983 0.061354
vt 0.124986 0.061353
vt 0.999998 0.000012
vt 1.000000 0.061349
vt 0.000002 0.000013
vt 0.000000 0.061347
vn -0.026250 -0.999311 0.026250
vn 0.000000 -0.999437 0.033558
vn -0.000000 -0.973057 0.230563
vn -0.169790 -0.970743 0.169789
vn 0.026250 -0.999311 0.026250
vn 0.169790 -0.970744 0.169789
vn 0.705664 -0.063842 0.705664
vn -0.000000 -0.065417 0.997858
vn -0.705664 -0.063842 0.705664
vn -0.026385 0.999304 0.026385
vn 0.000000 0.999431 0.033726
vn 0.000000 1.000000 0.000000
vn -0.033726 0.999431 -0.000000
vn 0.026385 0.999304 0.026385
vn 0.033726 0.999431 0.000000
vn 0.026385 0.999304 -0.026385
vn -0.000000 0.999431 -0.033726
vn -0.026385 0.999304 -0.026385
vn -0.705664 -0.063843 -0.705664
vn -0.000000 -0.065419 -0.997858
vn -0.000000 -0.973057 -0.230563
vn -0.169790 -0.970744 -0.169789
vn 0.705664 -0.063843 -0.705664
vn 0.169790 -0.970744 -0.169789
vn 0.026250 -0.999311 -0.026250
vn 0.000000 -0.999437 -0.033558
vn -0.026250 -0.999311 -0.026250
vn 0.000000 -1.000000 0.000000
vn -0.033558 -0.999437 0.000000
vn 0.033558 -0.999437 0.000000
vn 0.230564 -0.973057 0.000000
vn 0.997858 -0.065416 0.000000
vn -0.230564 -0.973057 -0.000000
vn -0.997858 -0.065416 -0.000000
vn -0.705664 0.063857 -0.705664
vn -0.997858 0.065420 0.000000
vn -0.231383 0.972863 -0.000000
vn -0.170383 0.970536 -0.170382
vn -0.705664 0.063856 0.705664
vn -0.170383 0.970536 0.170383
vn 0.000000 0.972863 -0.231383
vn 0.170383 0.970536 -0.170382
vn 0.705664 0.063857 -0.705664
vn 0.000000 0.065423 -0.997858
vn 0.705664 0.063856 0.705664
vn 0.997858 0.065420 -0.000000
vn 0.231383 0.972863 0.000000
vn 0.170383 0.970536 0.170383
vn -0.000000 0.065421 0.997858
vn 0.000000 0.972863 0.231383
s 1
g pasted__pCylinder22 pasted__group13 group14 polySurface151
usemtl blinn11SG
f 33/37/33 59/38/34 73/39/35 62/40/36
f 59/38/34 34/41/37 60/42/38 73/39/35
f 73/39/35 60/42/38 48/43/39 61/44/40
f 62/40/36 73/39/35 61/44/40 45/45/41
f 35/46/42 63/47/43 74/48/44 66/49/45
f 63/47/43 36/50/46 64/51/47 74/48/44
f 74/48/44 64/51/47 38/52/48 65/53/49
f 66/49/45 74/48/44 65/53/49 37/54/50
f 46/55/51 67/56/52 75/57/53 70/58/54
f 67/56/52 47/59/55 68/60/56 75/57/53
f 75/57/53 68/60/56 40/61/57 69/62/58
f 70/58/54 75/57/53 69/62/58 39/63/59
f 39/63/59 69/62/58 76/64/60 72/65/61
f 69/62/58 40/61/57 71/66/62 76/64/60
f 76/64/60 71/66/62 34/41/37 59/38/34
f 72/65/61 76/64/60 59/38/34 33/37/33
f 34/41/37 71/66/62 77/67/63 60/42/38
f 71/66/62 40/61/57 68/60/56 77/67/63
f 77/67/63 68/60/56 47/59/55 49/68/64
f 60/42/38 77/67/63 49/68/64 48/43/39
f 39/63/59 72/65/61 78/69/65 70/58/54
f 72/65/61 33/37/33 62/40/36 78/69/65
f 78/69/65 62/40/36 45/45/41 50/70/66
f 70/58/54 78/69/65 50/70/66 46/55/51
f 42/71/67 51/72/68 79/73/69 53/74/70
f 51/72/68 41/75/71 52/76/72 79/73/69
f 79/73/69 52/76/72 35/46/42 66/49/45
f 53/74/70 79/73/69 66/49/45 37/54/50
f 37/54/50 65/53/49 80/77/73 53/74/70
f 65/53/49 38/52/48 54/78/74 80/77/73
f 80/77/73 54/78/74 43/79/75 55/80/76
f 53/74/70 80/77/73 55/80/76 42/71/67
f 44/81/77 56/82/78 81/83/79 57/84/80
f 56/82/78 43/79/75 54/78/74 81/83/79
f 81/83/79 54/78/74 38/52/48 64/51/47
f 57/84/80 81/83/79 64/51/47 36/50/46
f 41/75/71 58/85/81 82/86/82 52/76/72
f 58/85/81 44/81/77 57/84/80 82/86/82
f 82/86/82 57/84/80 36/50/46 63/47/43
f 52/76/72 82/86/82 63/47/43 35/46/42
f 46/87/51 50/88/66 51/89/68 42/90/67
f 50/88/66 45/91/41 41/92/71 51/89/68
f 46/87/51 42/90/67 55/93/76 67/94/52
f 55/93/76 43/95/75 47/96/55 67/94/52
f 48/97/39 49/98/64 56/99/78 44/100/77
f 49/98/64 47/96/55 43/95/75 56/99/78
f 41/92/71 45/91/41 61/101/40 58/102/81
f 61/103/40 48/97/39 44/100/77 58/104/81
g default
v 24.268784 0.000000 21.978760
v 21.744019 0.000000 20.932983
v 19.219238 0.000000 21.978760
v 18.173447 0.000000 24.503540
v 19.219238 0.000000 27.028320
v 21.744019 0.000000 28.074097
v 24.268784 0.000000 27.028320
v 25.314575 0.000000 24.503540
v 19.492920 60.547905 11.249451
v 16.968155 60.547905 10.203613
v 14.443390 60.547905 11.249451
v 13.397583 60.547905 13.774231
v 14.443390 60.547905 16.298950
v 16.968155 60.547905 17.344788
v 19.492920 60.547905 16.298950
v 20.538712 60.547905 13.774231
v 18.947540 31.015190 22.103577
v 16.422760 31.015190 21.057800
v 15.376968 31.015190 18.533020
v 16.422760 31.015190 16.008240
v 18.947540 31.015190 14.962463
v 21.472305 31.015190 16.008240
v 22.518097 31.015190 18.533020
v 21.472305 31.015190 21.057800
vt 0.557528 0.945824
vt 0.553837 0.969751
vt 0.272855 0.970221
vt 0.276190 0.946206
vt 0.553652 0.993965
vt 0.272742 0.994426
vt 0.553643 0.802372
vt 0.557000 0.826355
vt 0.275923 0.825858
vt 0.272759 0.801850
vt 0.562014 0.850046
vt 0.280524 0.849687
vt 0.565717 0.873960
vt 0.283877 0.873790
vt 0.565944 0.898168
vt 0.283990 0.898174
vt 0.562543 0.922128
vt 0.280808 0.922335
vt 0.017476 0.873939
vt 0.014514 0.849933
vt 0.010331 0.826098
vt 0.007375 0.802088
vt 0.007353 0.994172
vt 0.007387 0.969982
vt 0.010362 0.945967
vt 0.014539 0.922143
vt 0.017496 0.898129
vn 0.738125 -0.062759 -0.671739
vn 0.020248 -0.187233 -0.982107
vn -0.003148 -0.174297 -0.984688
vn 0.701364 -0.071145 -0.709244
vn -0.704912 -0.194847 -0.682008
vn -0.695140 -0.177497 -0.696617
vn -0.995690 -0.081122 0.044955
vn -0.996792 -0.079902 -0.004695
vn -0.669575 0.081740 0.738233
vn -0.709412 0.067576 0.701547
vn 0.022186 0.190914 0.981356
vn -0.003118 0.174671 0.984622
vn 0.680509 0.197208 0.705702
vn 0.696435 0.178854 0.694975
vn 0.994017 0.098650 0.046882
vn 0.996992 0.077371 -0.004666
vn -0.015327 0.158065 0.987310
vn -0.732287 0.060224 0.678328
vn -0.996547 -0.073129 -0.039331
vn -0.686241 -0.160319 -0.709487
vn -0.016557 -0.160145 -0.986955
vn 0.676848 -0.072672 -0.732527
vn 0.997428 0.060711 -0.038105
vn 0.708872 0.158269 0.687352
s 1
g pasted__pCylinder22 pasted__group13 group14 polySurface153
usemtl blinn11SG
f 83/105/83 84/106/84 103/107/85 104/108/86
f 84/106/84 85/109/87 102/110/88 103/107/85
f 85/111/87 86/112/89 101/113/90 102/114/88
f 86/112/89 87/115/91 100/116/92 101/113/90
f 87/115/91 88/117/93 99/118/94 100/116/92
f 88/117/93 89/119/95 106/120/96 99/118/94
f 89/119/95 90/121/97 105/122/98 106/120/96
f 90/121/97 83/105/83 104/108/86 105/122/98
f 100/116/92 99/118/94 96/123/99 95/124/100
f 101/113/90 100/116/92 95/124/100 94/125/101
f 102/114/88 101/113/90 94/125/101 93/126/102
f 103/107/85 102/110/88 93/127/102 92/128/103
f 104/108/86 103/107/85 92/128/103 91/129/104
f 105/122/98 104/108/86 91/129/104 98/130/105
f 106/120/96 105/122/98 98/130/105 97/131/106
f 99/118/94 106/120/96 97/131/106 96/123/99
g default
v -18.723969 24.622078 4.721375
v -19.803802 23.824638 3.151855
v -20.626419 24.577642 1.413635
v -20.709930 26.439993 0.524841
v -20.005432 28.320747 1.006165
v -18.925583 29.118189 2.575623
v -18.102982 28.365187 4.313904
v -18.019455 26.502836 5.202698
v 15.218109 24.650831 -17.951111
v 14.266876 23.838348 -19.594421
v 13.315659 24.606396 -21.258911
v 12.921646 26.505062 -21.969604
v 13.315659 28.422134 -21.310120
v 14.266876 29.234617 -19.666870
v 15.218109 28.466570 -18.002380
v 15.612122 26.567904 -17.291687
vt 0.868929 0.984337
vt 0.850606 0.984599
vt 0.850130 0.621111
vt 0.868425 0.622161
vt 0.995595 0.984607
vt 0.977448 0.982064
vt 0.978275 0.619888
vt 0.996558 0.621119
vt 0.959525 0.978247
vt 0.959961 0.619238
vt 0.941426 0.975376
vt 0.941639 0.619536
vt 0.923103 0.975135
vt 0.923346 0.620607
vt 0.904953 0.977665
vt 0.905061 0.621825
vt 0.887029 0.981474
vt 0.886748 0.622466
vn 0.385409 -0.720984 0.575884
vn 0.016359 -0.999589 0.023563
vn -0.002009 -0.999990 -0.003943
vn 0.390651 -0.711801 0.583722
vn -0.368154 -0.748265 -0.551872
vn -0.392388 -0.707225 -0.588103
vn -0.555196 -0.054192 -0.829952
vn -0.556104 -0.004352 -0.831101
vn -0.405284 0.687754 -0.602278
vn -0.401037 0.695769 -0.595882
vn -0.000056 0.999988 0.004805
vn -0.018081 0.999592 -0.022104
vn 0.405257 0.682338 0.608426
vn 0.382215 0.724008 0.574216
vn 0.555233 -0.046236 0.830409
vn 0.555782 0.005115 0.831312
s 1
g pasted__pCylinder22 pasted__group13 group14 polySurface150
usemtl blinn11SG
f 107/132/107 108/133/108 116/134/109 115/135/110
f 108/136/108 109/137/111 117/138/112 116/139/109
f 109/137/111 110/140/113 118/141/114 117/138/112
f 110/140/113 111/142/115 119/143/116 118/141/114
f 111/142/115 112/144/117 120/145/118 119/143/116
f 112/144/117 113/146/119 121/147/120 120/145/118
f 113/146/119 114/148/121 122/149/122 121/147/120
f 114/148/121 107/132/107 115/135/110 122/149/122
g default
v -25.630829 -0.000000 1.405945
v -28.155602 -0.000000 0.360107
v -30.680374 -0.000000 1.405945
v -31.726173 -0.000000 3.930664
v -30.680374 -0.000000 6.455444
v -28.155602 -0.000000 7.501221
v -25.630829 -0.000000 6.455444
v -24.585030 -0.000000 3.930664
v -8.366089 60.547905 1.405945
v -10.890854 60.547905 0.360107
v -13.415619 60.547905 1.405945
v -14.461411 60.547905 3.930664
v -13.415619 60.547905 6.455444
v -10.890854 60.547905 7.501221
v -8.366089 60.547905 6.455444
v -7.320282 60.547905 3.930664
v -19.225403 29.383076 7.501221
v -21.750183 29.383076 6.455444
v -22.795975 29.383076 3.930664
v -21.750183 29.383076 1.405945
v -19.225403 29.383076 0.360107
v -16.700638 29.383076 1.405945
v -15.654846 29.383076 3.930664
v -16.700638 29.383076 6.455444
vt 0.490239 0.079994
vt 0.513560 0.073527
vt 0.513184 0.346026
vt 0.489717 0.352155
vt 0.536883 0.067035
vt 0.536712 0.339882
vt 0.560932 0.064339
vt 0.560940 0.337332
vt 0.584984 0.067033
vt 0.585168 0.339877
vt 0.608305 0.073526
vt 0.608696 0.346017
vt 0.631630 0.079998
vt 0.632167 0.352142
vt 0.655694 0.082639
vt 0.656253 0.354662
vt 0.466177 0.082642
vt 0.465631 0.354679
vt 0.608561 0.632236
vt 0.585054 0.626437
vt 0.560977 0.624029
vt 0.536880 0.626443
vt 0.513392 0.632245
vt 0.489880 0.638048
vt 0.465794 0.640458
vt 0.656158 0.640436
vt 0.632070 0.638033
vn 0.658702 -0.200195 -0.725282
vn -0.071526 0.021738 -0.997202
vn 0.002094 -0.001830 -0.999996
vn 0.694132 -0.197921 -0.692104
vn -0.725428 0.220474 -0.652032
vn -0.692183 0.197376 -0.694208
vn -0.956787 0.290790 0.000000
vn -0.961359 0.275296 0.000000
vn -0.725429 0.220475 0.652031
vn -0.692183 0.197376 0.694208
vn -0.071523 0.021737 0.997202
vn 0.002094 -0.001830 0.999996
vn 0.658701 -0.200194 0.725283
vn 0.694132 -0.197921 0.692104
vn 0.956787 -0.290789 -0.000000
vn 0.961979 -0.273123 -0.000000
vn 0.063417 -0.016960 0.997843
vn -0.665361 0.177941 0.725004
vn -0.966050 0.258355 -0.000000
vn -0.665363 0.177941 -0.725003
vn 0.063420 -0.016961 -0.997843
vn 0.725443 -0.194009 -0.660373
vn 0.966050 -0.258355 0.000000
vn 0.725444 -0.194009 0.660372
s 1
g pasted__pCylinder22 pasted__group13 group14 polySurface155
usemtl blinn11SG
f 123/150/123 124/151/124 143/152/125 144/153/126
f 124/151/124 125/154/127 142/155/128 143/152/125
f 125/154/127 126/156/129 141/157/130 142/155/128
f 126/156/129 127/158/131 140/159/132 141/157/130
f 127/158/131 128/160/133 139/161/134 140/159/132
f 128/160/133 129/162/135 146/163/136 139/161/134
f 129/162/135 130/164/137 145/165/138 146/163/136
f 130/166/137 123/150/123 144/153/126 145/167/138
f 140/159/132 139/161/134 136/168/139 135/169/140
f 141/157/130 140/159/132 135/169/140 134/170/141
f 142/155/128 141/157/130 134/170/141 133/171/142
f 143/152/125 142/155/128 133/171/142 132/172/143
f 144/153/126 143/152/125 132/172/143 131/173/144
f 145/167/138 144/153/126 131/173/144 138/174/145
f 146/163/136 145/165/138 138/175/145 137/176/146
f 139/161/134 146/163/136 137/176/146 136/168/139
g default
v 21.304489 -0.000000 -27.819885
v 18.779709 -0.000000 -28.865601
v 16.254944 -0.000000 -27.819885
v 15.209152 -0.000000 -25.295044
v 16.254944 -0.000000 -22.770264
v 18.779709 -0.000000 -21.724487
v 21.304489 -0.000000 -22.770264
v 22.350281 -0.000000 -25.295044
v 11.878128 60.547905 -15.866638
v 9.353363 60.547905 -16.912476
v 6.828583 60.547905 -15.866638
v 5.782791 60.547905 -13.341919
v 6.828583 60.547905 -10.817139
v 9.353363 60.547905 -9.771362
v 11.878128 60.547905 -10.817139
v 12.923920 60.547905 -13.341919
v 14.985718 30.599361 -15.737915
v 12.460938 30.599361 -16.783691
v 11.415146 30.599361 -19.308472
v 12.460938 30.599361 -21.833252
v 14.985718 30.599361 -22.879028
v 17.510483 30.599361 -21.833252
v 18.556274 30.599361 -19.308472
v 17.510483 30.599361 -16.783691
vt 0.779665 0.633964
vt 0.755408 0.633016
vt 0.755550 0.354206
vt 0.779676 0.355800
vt 0.731555 0.628518
vt 0.731826 0.349044
vt 0.707911 0.623089
vt 0.708121 0.343332
vt 0.683875 0.619916
vt 0.683904 0.340429
vt 0.659644 0.620849
vt 0.659666 0.342024
vt 0.851218 0.620908
vt 0.827382 0.625416
vt 0.827027 0.347230
vt 0.850647 0.342054
vt 0.803728 0.630814
vt 0.803602 0.352913
vt 0.660022 0.066575
vt 0.684159 0.064339
vt 0.708249 0.066996
vt 0.731726 0.073001
vt 0.755260 0.078833
vt 0.779408 0.081077
vt 0.803509 0.078442
vt 0.826995 0.072471
vt 0.850512 0.066633
vn 0.680762 0.221038 -0.698359
vn 0.030405 0.195545 -0.980223
vn 0.006942 0.195754 -0.980628
vn 0.689886 0.240665 -0.682743
vn -0.666109 0.062813 -0.743205
vn -0.703322 0.032264 -0.710139
vn -0.992432 -0.114242 -0.045029
vn -0.987922 -0.154951 0.000274
vn -0.697655 -0.219902 0.681851
vn -0.682225 -0.243799 0.689298
vn 0.027730 -0.188617 0.981659
vn 0.006949 -0.191590 0.981450
vn 0.743237 -0.038520 0.667919
vn 0.710290 -0.026699 0.703402
vn 0.990089 0.132092 -0.047692
vn 0.988274 0.152694 0.000278
vn -0.045718 -0.203445 0.978018
vn -0.680631 -0.264147 0.683351
vn -0.979823 -0.193916 0.048403
vn -0.751366 -0.009855 -0.659812
vn -0.041711 0.187667 -0.981347
vn 0.683191 0.264121 -0.680802
vn 0.983371 0.176095 0.044399
vn 0.659439 -0.025664 0.751320
s 1
g pasted__pCylinder22 pasted__group13 group14 polySurface154
usemtl blinn11SG
f 147/177/147 148/178/148 167/179/149 168/180/150
f 148/178/148 149/181/151 166/182/152 167/179/149
f 149/181/151 150/183/153 165/184/154 166/182/152
f 150/183/153 151/185/155 164/186/156 165/184/154
f 151/185/155 152/187/157 163/188/158 164/186/156
f 152/189/157 153/190/159 170/191/160 163/192/158
f 153/190/159 154/193/161 169/194/162 170/191/160
f 154/193/161 147/177/147 168/180/150 169/194/162
f 164/186/156 163/188/158 160/195/163 159/196/164
f 165/184/154 164/186/156 159/196/164 158/197/165
f 166/182/152 165/184/154 158/197/165 157/198/166
f 167/179/149 166/182/152 157/198/166 156/199/167
f 168/180/150 167/179/149 156/199/167 155/200/168
f 169/194/162 168/180/150 155/200/168 162/201/169
f 170/191/160 169/194/162 162/201/169 161/202/170
f 163/192/158 170/191/160 161/202/170 160/203/163
