# This file uses meters as units for non-parametric coordinates.

mtllib WallNarrowHalf_low.mtl
g default
v -33.800865 0.000000 -3.384740
v -33.800865 16.737503 -3.384725
v 33.864491 0.000000 -3.384740
v 33.864491 16.737503 -3.384725
v -33.400063 115.658585 -3.384725
v 33.864491 115.658585 -3.384725
v -33.400063 131.536606 -3.384725
v 33.864491 131.536606 -3.384725
v -49.681236 0.000000 -5.436590
v -33.800865 0.000000 -5.436590
v -33.800865 16.737503 -5.436574
v -49.681236 16.737503 -5.436574
v -33.400063 115.658585 -5.436574
v -49.681236 115.658585 -5.436574
v -33.400063 131.536575 -5.436574
v -49.875954 131.536575 -5.436574
v 33.864491 0.000000 -5.436590
v 49.744862 0.000000 -5.436590
v 49.744862 16.737503 -5.436574
v 33.864491 16.737503 -5.436574
v 49.744862 115.658585 -5.436574
v 33.864491 115.658585 -5.436574
v 49.691975 131.536575 -5.436574
v 33.864491 131.536575 -5.436574
v -33.800865 0.000000 3.384740
v -33.800865 16.737503 3.384725
v 33.864491 0.000000 3.384740
v 33.864491 16.737503 3.384725
v -33.400063 115.658585 3.384725
v 33.864491 115.658585 3.384725
v -33.400063 131.536606 3.384725
v 33.864491 131.536606 3.384725
v -49.681236 0.000000 5.436589
v -33.800865 0.000000 5.436589
v -33.800865 16.737503 5.436574
v -49.681236 16.737503 5.436574
v -33.400063 115.658585 5.436574
v -49.681236 115.658585 5.436574
v -33.400063 131.536575 5.436574
v -49.875954 131.536575 5.436574
v 33.864491 0.000000 5.436589
v 49.744862 0.000000 5.436589
v 49.744862 16.737503 5.436574
v 33.864491 16.737503 5.436574
v 49.744862 115.658585 5.436574
v 33.864491 115.658585 5.436574
v 49.691975 131.536575 5.436574
v 33.864491 131.536575 5.436574
v -35.018288 16.773359 -2.166774
v 35.082439 16.737501 -2.166774
v -34.617485 115.694443 -2.166774
v 35.082439 115.658585 -2.166774
v -35.018288 16.773359 2.166773
v 35.082439 16.737501 2.166773
v -34.617485 115.694443 2.166773
v 35.082439 115.658585 2.166773
v -49.833076 131.536591 -3.242119
v 49.700008 131.536591 -3.242119
v -49.833084 131.536591 3.242119
v 49.700008 131.536591 3.242119
v -49.681236 0.000000 -3.099518
v -49.681236 16.737503 -3.099513
v -49.681236 115.658585 -3.099513
v -49.681236 0.000000 3.099518
v -49.681236 16.737503 3.099513
v -49.681236 115.658585 3.099513
v 49.744862 115.658585 -3.099513
v 49.744862 16.737503 -3.099513
v 49.744862 0.000000 -3.099518
v 49.744862 115.658585 3.099513
v 49.744862 16.737503 3.099513
v 49.744862 0.000000 3.099518
vt 0.884925 0.003294
vt 0.884916 0.063262
vt 0.828026 0.063248
vt 0.828041 0.003281
vt 0.411542 0.413493
vt 0.820674 0.063221
vt 0.479694 0.688995
vt 0.711217 0.995963
vt 0.718568 0.995964
vt 0.718580 0.935998
vt 0.775476 0.936011
vt 0.775464 0.995977
vt 0.884855 0.417719
vt 0.826492 0.417602
vt 0.718659 0.581574
vt 0.775549 0.581616
vt 0.884907 0.474688
vt 0.826062 0.474360
vt 0.495411 0.409434
vt 0.892233 0.533649
vt 0.782917 0.468023
vt 0.711308 0.581570
vt 0.718796 0.524665
vt 0.775539 0.524742
vt 0.923872 0.003298
vt 0.980756 0.003298
vt 0.980758 0.063266
vt 0.923868 0.063266
vt 0.988107 0.003297
vt 0.411544 0.413494
vt 0.878680 0.936028
vt 0.479691 0.688997
vt 0.871317 0.995994
vt 0.814421 0.995984
vt 0.814433 0.936019
vt 0.871328 0.936027
vt 0.982207 0.417621
vt 0.923844 0.417725
vt 0.814494 0.581623
vt 0.871384 0.581602
vt 0.923811 0.533641
vt 0.923779 0.474688
vt 0.989559 0.417587
vt 0.652269 0.683306
vt 0.807175 0.468031
vt 0.916466 0.533642
vt 0.814525 0.524751
vt 0.871268 0.524694
vt 0.814504 0.063305
vt 0.000003 0.690369
vt 0.490450 0.404478
vt 0.402765 0.690159
vt 0.884851 0.936029
vt 0.402763 0.404951
vt 0.000000 0.406380
vt 0.657228 0.688264
vt 0.892752 0.474754
vt 0.783408 0.524756
vt 0.915934 0.474753
vt 0.806657 0.524761
vt 0.893235 0.417723
vt 0.893288 0.063263
vt 0.893296 0.003296
vt 0.915501 0.003298
vt 0.915495 0.063266
vt 0.915464 0.417727
vt 0.783849 0.936013
vt 0.783838 0.995978
vt 0.783919 0.581618
vt 0.806123 0.581622
vt 0.806060 0.936017
vt 0.806048 0.995982
vt 0.560059 0.683305
vt 0.711445 0.524648
vt 0.878619 0.524680
vt 0.587621 0.683305
vt 0.818712 0.474310
vt 0.560060 0.409434
vt 0.587621 0.409434
vt 0.989974 0.474329
vt 0.995729 0.417672
vt 0.657231 0.404478
vt 0.884906 0.581602
vt 0.000003 0.690167
vt 0.484650 0.408535
vt 0.402765 0.690369
vt 0.878735 0.581601
vt 0.484652 0.693954
vt 0.994280 0.063326
vt 0.652270 0.409434
vt 0.479691 0.413494
vt 0.988109 0.063240
vt 0.812970 0.417650
vt 0.402763 0.406372
vt 0.705137 0.581569
vt 0.490452 0.688264
vt 0.484654 0.693953
vt 0.705058 0.935995
vt 0.495411 0.683306
vt 0.484651 0.408535
vt 0.000000 0.404951
vt 0.819141 0.417566
vt 0.711229 0.935996
vt 0.479690 0.413492
vt 0.814526 0.468032
vt 0.982624 0.474378
vt 0.878669 0.995995
vt 0.411544 0.688997
vt 0.775566 0.468020
vt 0.884887 0.533649
vt 0.411547 0.688996
vt 0.820690 0.003279
vn 0.000000 0.000001 -1.000000
vn 0.000000 0.000000 -1.000000
vn 0.000000 0.000000 -1.000000
vn 0.000000 0.000001 -1.000000
vn 0.000000 0.000001 -1.000000
vn 0.000000 0.000001 -1.000000
vn 0.000000 0.000001 -1.000000
vn 0.000000 0.000001 -1.000000
vn 0.000000 0.000001 -1.000000
vn 0.000000 0.000000 -1.000000
vn 0.000000 0.000000 -1.000000
vn 0.000000 0.000001 -1.000000
vn 0.000000 0.000000 -1.000000
vn 0.000000 0.000000 -1.000000
vn 0.000000 0.000000 -1.000000
vn 0.000000 0.000000 -1.000000
vn 0.000000 0.000000 -1.000000
vn 0.000000 0.000000 -1.000000
vn 0.000000 0.000000 -1.000000
vn 0.000000 0.000000 -1.000000
vn 0.000000 0.000000 -1.000000
vn 0.000000 0.000000 -1.000000
vn 0.000000 0.000000 -1.000000
vn 0.000000 0.000000 -1.000000
vn 1.000000 0.000000 0.000000
vn 1.000000 0.000000 0.000000
vn 0.999994 -0.003465 0.000000
vn 0.999994 -0.003465 0.000000
vn 0.999994 -0.003491 0.000000
vn 0.999994 -0.003491 0.000000
vn 1.000000 0.000000 0.000000
vn 1.000000 0.000000 0.000000
vn -1.000000 0.000000 0.000000
vn -1.000000 0.000000 0.000000
vn -1.000000 0.000000 0.000000
vn -1.000000 0.000000 0.000000
vn -1.000000 0.000000 0.000000
vn -1.000000 0.000000 0.000000
vn -1.000000 0.000000 0.000000
vn -1.000000 0.000000 0.000000
vn 0.000000 0.000001 1.000000
vn 0.000000 0.000001 1.000000
vn 0.000000 0.000000 1.000000
vn 0.000000 0.000000 1.000000
vn 0.000000 0.000001 1.000000
vn 0.000000 0.000001 1.000000
vn 0.000000 0.000001 1.000000
vn 0.000000 0.000001 1.000000
vn 0.000000 0.000001 1.000000
vn 0.000000 0.000001 1.000000
vn 0.000000 0.000000 1.000000
vn 0.000000 0.000000 1.000000
vn 0.000000 0.000000 1.000000
vn 0.000000 0.000000 1.000000
vn 0.000000 0.000000 1.000000
vn 0.000000 0.000000 1.000000
vn 0.000000 0.000000 1.000000
vn 0.000000 0.000000 1.000000
vn 0.000000 0.000000 1.000000
vn 0.000000 0.000000 1.000000
vn 0.000000 0.000000 1.000000
vn 0.000000 0.000000 1.000000
vn 0.000000 0.000000 1.000000
vn 0.000000 0.000000 1.000000
vn 1.000000 0.000000 0.000000
vn 0.999994 -0.003465 0.000000
vn 0.999994 -0.003465 0.000000
vn 1.000000 0.000000 0.000000
vn 0.999994 -0.003491 0.000000
vn 0.999994 -0.003491 0.000000
vn 1.000000 0.000000 0.000000
vn 1.000000 0.000000 0.000000
vn -1.000000 0.000000 0.000000
vn -1.000000 0.000000 0.000000
vn -1.000000 0.000000 0.000000
vn -1.000000 0.000000 0.000000
vn -1.000000 0.000000 0.000000
vn -1.000000 0.000000 0.000000
vn -1.000000 0.000000 0.000000
vn -1.000000 0.000000 0.000000
vn 0.000260 0.999892 -0.014715
vn 0.000260 0.999892 -0.014715
vn 0.000260 0.999892 -0.014715
vn 0.000260 0.999892 -0.014715
vn 0.707215 -0.002865 0.706992
vn 0.707215 -0.002865 0.706993
vn 0.707215 -0.002865 0.706993
vn 0.707215 -0.002865 0.706992
vn -0.707107 0.000000 0.707106
vn -0.707107 0.000000 0.707106
vn -0.707108 0.000000 0.707106
vn -0.707107 0.000000 0.707106
vn -0.000262 -0.999892 0.014709
vn -0.000262 -0.999892 0.014709
vn -0.000262 -0.999892 0.014709
vn -0.000262 -0.999892 0.014709
vn 0.000260 0.999892 0.014716
vn 0.000260 0.999892 0.014716
vn 0.000260 0.999892 0.014716
vn 0.000260 0.999892 0.014716
vn 0.707215 -0.002865 -0.706993
vn 0.707215 -0.002865 -0.706993
vn 0.707215 -0.002865 -0.706992
vn 0.707215 -0.002865 -0.706993
vn -0.707108 0.000000 -0.707106
vn -0.707107 0.000000 -0.707106
vn -0.707107 0.000000 -0.707106
vn -0.707108 0.000000 -0.707106
vn -0.000262 -0.999892 -0.014709
vn -0.000262 -0.999892 -0.014709
vn -0.000262 -0.999892 -0.014709
vn -0.000262 -0.999892 -0.014709
vn -0.000000 0.000000 1.000000
vn -0.000000 0.000000 1.000000
vn -0.000000 0.000000 1.000000
vn -0.000000 0.000000 1.000000
vn 0.000000 0.000000 -1.000000
vn 0.000000 0.000000 -1.000000
vn 0.000000 0.000000 -1.000000
vn 0.000000 0.000000 -1.000000
vn 0.000000 1.000000 -0.000000
vn -0.000000 1.000000 -0.000000
vn -0.000000 1.000000 0.000000
vn 0.000000 1.000000 0.000000
vn -0.000001 1.000000 -0.000007
vn -0.000001 1.000000 -0.000007
vn -0.000001 1.000000 -0.000002
vn 0.000001 1.000000 -0.000007
vn 0.000001 1.000000 -0.000002
vn 0.000001 1.000000 -0.000007
vn -0.000001 1.000000 0.000007
vn -0.000001 1.000000 0.000002
vn -0.000001 1.000000 0.000007
vn 0.000001 1.000000 0.000007
vn 0.000001 1.000000 0.000007
vn 0.000001 1.000000 0.000002
vn -0.999896 -0.010870 0.009461
vn -0.999896 -0.010870 0.009461
vn -0.999948 -0.009904 0.002469
vn -0.999948 -0.009910 0.002511
vn -1.000000 0.000000 0.000000
vn -1.000000 0.000000 0.000000
vn -1.000000 0.000000 0.000000
vn -1.000000 0.000000 0.000000
vn -1.000000 0.000000 0.000000
vn -1.000000 0.000000 0.000000
vn -1.000000 0.000000 0.000000
vn -1.000000 0.000000 0.000000
vn -1.000000 0.000000 0.000000
vn -1.000000 0.000000 0.000000
vn -1.000000 0.000000 0.000000
vn -1.000000 0.000000 0.000000
vn -0.999948 -0.009904 -0.002470
vn -0.999948 -0.009910 -0.002512
vn -1.000000 0.000000 0.000000
vn -1.000000 0.000000 0.000000
vn -1.000000 0.000000 0.000000
vn -1.000000 0.000000 0.000000
vn -0.999896 -0.010870 -0.009459
vn -0.999896 -0.010870 -0.009459
vn 1.000000 0.000000 0.000000
vn 1.000000 0.000000 0.000000
vn 1.000000 0.000000 0.000000
vn 1.000000 0.000000 0.000000
vn 1.000000 0.000000 0.000000
vn 1.000000 0.000000 0.000000
vn 1.000000 0.000000 0.000000
vn 1.000000 0.000000 0.000000
vn 0.999994 0.003070 -0.001773
vn 0.999994 0.003070 -0.001773
vn 0.999996 0.002890 -0.000471
vn 0.999996 0.002889 -0.000463
vn 0.999996 0.002890 0.000471
vn 0.999996 0.002889 0.000463
vn 1.000000 0.000000 0.000000
vn 1.000000 0.000000 0.000000
vn 1.000000 0.000000 0.000000
vn 1.000000 0.000000 0.000000
vn 0.999994 0.003070 0.001773
vn 0.999994 0.003070 0.001773
vn 1.000000 0.000000 0.000000
vn 1.000000 0.000000 0.000000
vn 1.000000 0.000000 0.000000
vn 1.000000 0.000000 0.000000
s 1
g pasted__pasted__pasted__polySurface273 group17
usemtl blinn19SG
f 9/1/1 12/2/2 11/3/3 10/4/4
s off
f 1/5/5 2/104/6 4/7/7 3/111/8
s 2
f 17/9/9 20/10/10 19/11/11 18/12/12
s 1
f 12/2/2 14/13/13 13/14/14 11/3/3
s 2
f 20/10/10 22/15/15 21/16/16 19/11/11
s 1
f 14/13/13 16/17/17 15/18/18 13/14/14
s off
f 5/19/19 7/78/20 8/73/21 6/99/22
s 2
f 22/15/15 24/23/23 23/24/24 21/16/16
s 3
f 1/112/25 10/4/26 11/3/27 2/6/28
f 2/6/28 11/3/27 13/14/29 5/102/30
f 5/102/30 13/14/29 15/18/31 7/77/32
s 4
f 4/103/33 20/10/34 17/9/35 3/8/36
f 6/22/37 22/15/38 20/10/34 4/103/33
f 8/74/39 24/23/40 22/15/38 6/22/37
s 5
f 33/25/41 34/26/42 35/27/43 36/28/44
s off
f 25/108/45 27/30/46 28/91/47 26/32/48
s 6
f 41/33/49 42/34/50 43/35/51 44/36/52
s 5
f 36/28/44 35/27/43 37/37/53 38/38/54
s 6
f 44/36/52 43/35/51 45/39/55 46/40/56
s 5
f 38/38/54 37/37/53 39/106/57 40/42/58
s off
f 29/90/59 30/44/60 32/76/61 31/79/62
s 6
f 46/40/56 45/39/55 47/47/63 48/48/64
s 7
f 25/29/65 26/92/66 35/27/67 34/26/68
f 26/92/66 29/43/69 37/37/70 35/27/67
f 29/43/69 31/80/71 39/106/72 37/37/70
s 8
f 28/31/73 27/107/74 41/33/75 44/36/76
f 30/87/77 28/31/73 44/36/76 46/40/78
f 32/75/79 30/87/77 46/40/78 48/48/80
s off
f 4/7/81 2/104/82 49/100/83 50/97/84
f 2/6/85 5/102/86 51/93/87 49/49/88
f 6/22/89 4/103/90 50/98/91 52/95/92
f 5/19/93 6/99/94 52/96/95 51/51/96
f 26/32/97 28/91/98 54/85/99 53/88/100
f 29/43/101 26/92/102 53/89/103 55/81/104
f 28/31/105 30/87/106 56/83/107 54/53/108
f 30/44/109 29/90/110 55/82/111 56/56/112
f 54/86/113 56/84/114 55/55/115 53/54/116
f 50/50/117 49/101/118 51/94/119 52/52/120
s 9
f 8/73/121 7/78/122 31/79/123 32/76/124
f 7/20/122 15/110/125 16/17/126 57/57/127
f 24/109/128 8/21/121 58/58/129 23/24/130
f 39/41/131 31/46/123 59/59/132 40/42/133
f 32/45/124 48/105/134 47/47/135 60/60/136
f 31/46/123 7/20/122 57/57/127 59/59/132
f 8/21/121 32/45/124 60/60/136 58/58/129
s 10
f 16/17/137 14/13/138 63/61/139 57/57/140
s 11
f 14/13/141 12/2/142 62/62/143 63/61/144
s 12
f 12/2/145 9/1/146 61/63/147 62/62/148
f 62/62/148 61/63/147 64/64/149 65/65/150
s 11
f 63/61/144 62/62/143 65/65/151 66/66/152
s 10
f 57/57/140 63/61/139 66/66/153 59/59/154
s 12
f 65/65/150 64/64/149 33/25/155 36/28/156
s 11
f 66/66/152 65/65/151 36/28/157 38/38/158
s 10
f 59/59/154 66/66/153 38/38/159 40/42/160
s 13
f 18/12/161 19/11/162 68/67/163 69/68/164
s 14
f 19/11/165 21/16/166 67/69/167 68/67/168
s 15
f 21/16/169 23/24/170 58/58/171 67/69/172
f 67/69/172 58/58/171 60/60/173 70/70/174
s 14
f 68/67/168 67/69/167 70/70/175 71/71/176
s 13
f 69/68/164 68/67/163 71/71/177 72/72/178
s 15
f 70/70/174 60/60/173 47/47/179 45/39/180
s 14
f 71/71/176 70/70/175 45/39/181 43/35/182
s 13
f 72/72/178 71/71/177 43/35/183 42/34/184
