# This file uses meters as units for non-parametric coordinates.

mtllib WallNarrowL_low.mtl
g default
v -26.166565 16.737503 -2.376431
v 42.046936 16.737503 -2.376431
v -26.166565 224.121994 -2.376431
v 42.046936 224.121994 -2.376431
v -26.166565 -0.000008 0.340214
v -26.166565 16.737503 0.340214
v 42.046936 -0.000008 0.340214
v 42.046936 16.737503 0.340214
v -26.166565 224.121994 0.340214
v 42.046936 224.121994 0.340214
v -26.166565 240.000015 0.340214
v 42.046936 240.000015 0.340214
v -42.046936 -0.000008 2.392063
v -26.166565 -0.000008 2.392063
v -26.166565 16.737503 2.392063
v -42.046936 16.737503 2.392063
v -26.166565 224.121994 2.392063
v -42.046936 224.121994 2.392063
v -26.166565 240.000015 2.392063
v -42.046936 240.000015 2.392063
v -42.046936 -0.000008 -2.392063
v -42.046936 16.737503 -2.392063
v -42.046936 224.121994 -2.392063
v -42.046936 240.000015 -2.392063
vt 0.077590 0.801764
vt 0.024936 0.801812
vt 0.024895 0.746320
vt 0.077592 0.746317
vt 0.994663 0.964271
vt 0.765242 0.964250
vt 0.765246 0.907957
vt 0.994669 0.907978
vt 0.024839 0.058059
vt 0.077543 0.058055
vt 0.922435 0.633047
vt 0.714762 0.633052
vt 0.714749 0.001679
vt 0.922422 0.001675
vt 0.024830 0.005358
vt 0.077540 0.005351
vt 0.764422 0.842301
vt 0.993845 0.842316
vt 0.993842 0.895719
vt 0.764419 0.895703
vt 0.765248 0.898820
vt 0.994670 0.898841
vt 0.009070 0.746321
vt 0.009013 0.058061
vt 0.018029 0.058060
vt 0.018086 0.746321
vt 0.764423 0.833164
vt 0.993846 0.833179
vt 0.018132 0.801818
vt 0.018019 0.005360
vt 0.093455 0.746317
vt 0.093437 0.801765
vt 0.093421 0.058054
vt 0.093419 0.005349
vn 0.000000 0.000000 1.000000
vn 0.000000 0.000000 1.000000
vn 0.000000 0.000000 1.000000
vn 0.000000 0.000000 1.000000
vn 0.000000 0.000000 1.000000
vn 0.000000 0.000000 1.000000
vn 0.000000 0.000000 1.000000
vn 0.000000 0.000000 1.000000
vn 0.000000 0.000000 1.000000
vn 0.000000 0.000000 1.000000
vn 0.000000 0.000000 1.000000
vn 0.000000 0.000000 1.000000
vn 0.000000 0.000000 1.000000
vn 0.000000 0.000000 1.000000
vn 0.000000 0.000000 1.000000
vn 0.000000 0.000000 1.000000
vn 0.000000 0.000000 1.000000
vn 0.000000 0.000000 1.000000
vn 0.000000 0.000000 1.000000
vn 0.000000 0.000000 1.000000
vn 0.000000 1.000000 0.000000
vn 0.000000 1.000000 0.000000
vn 0.000000 1.000000 0.000000
vn 0.000000 1.000000 0.000000
vn 1.000000 0.000000 0.000000
vn 1.000000 0.000000 0.000000
vn 1.000000 0.000000 0.000000
vn 1.000000 0.000000 0.000000
vn 0.000000 -1.000000 0.000000
vn 0.000000 -1.000000 0.000000
vn 0.000000 -1.000000 0.000000
vn 0.000000 -1.000000 0.000000
vn 1.000000 0.000000 0.000000
vn 1.000000 0.000000 0.000000
vn 1.000000 0.000000 0.000000
vn 1.000000 0.000000 0.000000
vn 1.000000 0.000000 0.000000
vn 1.000000 0.000000 0.000000
vn -1.000000 0.000000 0.000000
vn -1.000000 0.000000 0.000000
vn -1.000000 0.000000 0.000000
vn -1.000000 0.000000 0.000000
vn -1.000000 0.000000 0.000000
vn -1.000000 0.000000 0.000000
vn -1.000000 0.000000 0.000000
vn -1.000000 0.000000 0.000000
s 1
g pasted__polySurface272 pasted__WallStraight15 group12
usemtl blinn18SG
f 13/1/1 14/2/2 15/3/3 16/4/4
s off
f 5/5/5 7/6/6 8/7/7 6/8/8
s 1
f 16/4/4 15/3/3 17/9/9 18/10/10
s off
f 1/11/11 2/12/12 4/13/13 3/14/14
s 1
f 18/10/10 17/9/9 19/15/15 20/16/16
s off
f 9/17/17 10/18/18 12/19/19 11/20/20
f 2/21/21 1/22/22 6/8/23 8/7/24
s 2
f 1/23/25 3/24/26 9/25/27 6/26/28
s off
f 3/27/29 4/28/30 10/18/31 9/17/32
s 2
f 5/29/33 6/26/28 15/3/34 14/2/35
f 6/26/28 9/25/27 17/9/36 15/3/34
f 9/25/27 11/30/37 19/15/38 17/9/36
s 3
f 13/1/39 16/4/40 22/31/41 21/32/42
f 16/4/40 18/10/43 23/33/44 22/31/41
f 18/10/43 20/16/45 24/34/46 23/33/44
