# This file uses meters as units for non-parametric coordinates.

mtllib WallNarrow_low.mtl
g default
v 49.938599 -0.000008 2.415527
v 49.938599 16.737503 2.415527
v 49.938599 224.121994 2.415527
v 49.938599 240.000015 2.415527
v -34.058105 16.737503 -2.415512
v 34.155396 16.737503 -2.415512
v -34.058105 224.121994 -2.415512
v 34.155396 224.121994 -2.415512
v -34.058105 -0.000008 0.301132
v -34.058105 16.737503 0.301132
v 34.155396 -0.000008 0.301132
v 34.155396 16.737503 0.301132
v -34.058105 224.121994 0.301132
v 34.155396 224.121994 0.301132
v -34.058105 240.000015 0.301132
v 34.155396 240.000015 0.301132
v -49.938477 -0.000008 2.352982
v -34.058105 -0.000008 2.352982
v -34.058105 16.737503 2.352982
v -49.938477 16.737503 2.352982
v -34.058105 224.121994 2.352982
v -49.938477 224.121994 2.352982
v -34.058105 240.000015 2.352982
v -49.938477 240.000015 2.352982
v 34.155396 -0.000008 2.352982
v 34.155396 16.737503 2.352982
v 34.155396 224.121994 2.352982
v 34.155396 240.000015 2.352982
vt 0.006356 0.799668
vt 0.006358 0.749994
vt 0.058713 0.749997
vt 0.058710 0.799671
vt 0.836949 0.909473
vt 0.836971 0.670088
vt 0.895709 0.670093
vt 0.895687 0.909479
vt 0.757074 0.814610
vt 0.757083 0.863980
vt 0.704728 0.863990
vt 0.704719 0.814620
vt 0.707409 0.750031
vt 0.707406 0.799704
vt 0.902345 0.663147
vt 0.685653 0.663152
vt 0.685639 0.004359
vt 0.902332 0.004355
vt 0.056032 0.864113
vt 0.056023 0.814743
vt 0.757074 0.750034
vt 0.757072 0.799707
vt 0.820568 0.669135
vt 0.820551 0.908521
vt 0.764830 0.908518
vt 0.764846 0.669132
vt 0.006366 0.864122
vt 0.006357 0.814752
vt 0.905242 0.670095
vt 0.905221 0.909480
vt 0.058714 0.735081
vt 0.707410 0.735115
vt 0.707409 0.743612
vt 0.058713 0.743579
vt 0.056020 0.799827
vt 0.704716 0.799704
vt 0.704718 0.808202
vt 0.056021 0.808325
vt 0.830101 0.669136
vt 0.830086 0.908522
vt 0.006358 0.743576
vt 0.757074 0.743615
vt 0.757073 0.808192
vt 0.006356 0.808334
vn 0.000000 0.000000 1.000000
vn 0.000000 0.000000 1.000000
vn 0.000000 0.000000 1.000000
vn 0.000000 0.000000 1.000000
vn 0.000000 0.000000 1.000000
vn 0.000000 0.000000 1.000000
vn 0.000000 0.000000 1.000000
vn 0.000000 0.000000 1.000000
vn -0.003963 0.000000 0.999992
vn -0.003963 0.000000 0.999992
vn -0.003963 0.000000 0.999992
vn -0.003963 0.000000 0.999992
vn 0.000000 0.000000 1.000000
vn 0.000000 0.000000 1.000000
vn 0.000000 0.000000 1.000000
vn 0.000000 0.000000 1.000000
vn 0.000000 0.000000 1.000000
vn 0.000000 0.000000 1.000000
vn -0.003963 0.000000 0.999992
vn -0.003963 0.000000 0.999992
vn 0.000000 0.000000 1.000000
vn 0.000000 0.000000 1.000000
vn 0.000000 0.000000 1.000000
vn 0.000000 0.000000 1.000000
vn 0.000000 0.000000 1.000000
vn 0.000000 0.000000 1.000000
vn -0.003963 0.000000 0.999992
vn -0.003963 0.000000 0.999992
vn 0.000000 1.000000 0.000000
vn 0.000000 1.000000 0.000000
vn 0.000000 1.000000 0.000000
vn 0.000000 1.000000 0.000000
vn 1.000000 0.000000 0.000000
vn 1.000000 0.000000 0.000000
vn 1.000000 0.000000 0.000000
vn 1.000000 0.000000 0.000000
vn -1.000000 0.000000 0.000000
vn -1.000000 0.000000 0.000000
vn -1.000000 0.000000 0.000000
vn -1.000000 0.000000 0.000000
vn 0.000000 -1.000000 0.000000
vn 0.000000 -1.000000 0.000000
vn 0.000000 -1.000000 0.000000
vn 0.000000 -1.000000 0.000000
vn 1.000000 0.000000 0.000000
vn 1.000000 0.000000 0.000000
vn 1.000000 0.000000 0.000000
vn 1.000000 0.000000 0.000000
vn 1.000000 0.000000 0.000000
vn 1.000000 0.000000 0.000000
vn -1.000000 0.000000 0.000000
vn -1.000000 0.000000 0.000000
vn -1.000000 0.000000 0.000000
vn -1.000000 0.000000 0.000000
vn -1.000000 0.000000 0.000000
vn -1.000000 0.000000 0.000000
s 1
g pasted__polySurface272 pasted__WallStraight15 group12
usemtl blinn18SG
f 17/1/1 18/2/2 19/3/3 20/4/4
s off
f 9/5/5 11/6/6 12/7/7 10/8/8
s 2
f 25/9/9 1/10/10 2/11/11 26/12/12
s 1
f 20/4/4 19/3/3 21/13/13 22/14/14
s off
f 5/15/15 6/16/16 8/17/17 7/18/18
s 2
f 26/12/12 2/11/11 3/19/19 27/20/20
s 1
f 22/14/14 21/13/13 23/21/21 24/22/22
s off
f 13/23/23 14/24/24 16/25/25 15/26/26
s 2
f 27/20/20 3/19/19 4/27/27 28/28/28
s off
f 6/29/29 5/30/30 10/8/31 12/7/32
s 3
f 5/31/33 7/32/34 13/33/35 10/34/36
s 4
f 8/35/37 6/36/38 12/37/39 14/38/40
s off
f 7/39/41 8/40/42 14/24/43 13/23/44
s 3
f 9/41/45 10/34/36 19/3/46 18/2/47
f 10/34/36 13/33/35 21/13/48 19/3/46
f 13/33/35 15/42/49 23/21/50 21/13/48
s 4
f 12/37/39 11/43/51 25/9/52 26/12/53
f 14/38/40 12/37/39 26/12/53 27/20/54
f 16/44/55 14/38/40 27/20/54 28/28/56
