# This file uses meters as units for non-parametric coordinates.

mtllib WallWide_low.mtl
g WallWide_low:default1
v -84.119629 16.737503 -2.384247
v 84.119629 16.737503 -2.384247
v -81.205933 224.121994 -2.384262
v 84.119629 224.121994 -2.384262
v -84.119629 0.000000 0.332397
v -84.119629 16.737503 0.332382
v 84.119629 0.000000 0.332397
v 84.119629 16.737503 0.332382
v -81.205933 224.121994 0.332382
v 84.119629 224.121994 0.332382
v -81.205933 240.000015 0.332382
v 84.119629 240.000015 0.332382
v -100.000000 0.000000 2.384247
v -84.119629 0.000000 2.384247
v -84.119629 16.737503 2.384232
v -100.000000 16.737503 2.384232
v -81.205933 224.121994 2.384232
v -100.000000 224.121994 2.384232
v -81.205933 239.999985 2.384232
v -100.000000 239.999985 2.384232
v 84.119629 0.000000 2.384247
v 100.000000 0.000000 2.384247
v 100.000000 16.737503 2.384232
v 84.119629 16.737503 2.384232
v 100.000000 224.121994 2.384232
v 84.119629 224.121994 2.384232
v 100.000000 239.999985 2.384232
v 84.119629 239.999985 2.384232
vt 0.008205 0.004880
vt 0.053448 0.004896
vt 0.053492 0.052629
vt 0.008240 0.052523
vt 0.003730 0.867845
vt 0.512146 0.867923
vt 0.512138 0.918503
vt 0.003722 0.918425
vt 0.088202 0.004020
vt 0.133039 0.004023
vt 0.133036 0.051279
vt 0.088200 0.051277
vt 0.059842 0.643568
vt 0.006297 0.643433
vt 0.133717 0.004120
vt 0.671489 0.004247
vt 0.671332 0.667145
vt 0.142874 0.667020
vt 0.133008 0.636805
vt 0.088172 0.636803
vt 0.059895 0.688754
vt 0.006303 0.688740
vt 0.223061 0.681421
vt 0.749406 0.681434
vt 0.749405 0.731985
vt 0.223060 0.731972
vt 0.133006 0.681635
vt 0.088170 0.681633
vt 0.512136 0.926713
vt 0.003721 0.926635
vt 0.067079 0.052514
vt 0.073428 0.643451
vt 0.065688 0.643525
vt 0.059338 0.052587
vt 0.074708 0.636802
vt 0.074737 0.051276
vt 0.082407 0.051277
vt 0.082379 0.636802
vt 0.223061 0.672772
vt 0.749407 0.672785
vt 0.059294 0.004885
vt 0.065743 0.688742
vt 0.082409 0.004020
vt 0.082376 0.681632
vn 0.000000 0.000001 1.000000
vn 0.000000 0.000001 1.000000
vn 0.000000 0.000000 1.000000
vn 0.000000 0.000000 1.000000
vn 0.000000 0.000001 1.000000
vn 0.000000 0.000001 1.000000
vn 0.000000 0.000001 1.000000
vn 0.000000 0.000001 1.000000
vn 0.000000 0.000001 1.000000
vn 0.000000 0.000001 1.000000
vn 0.000000 0.000000 1.000000
vn 0.000000 0.000000 1.000000
vn 0.000000 0.000000 1.000000
vn 0.000000 0.000000 1.000000
vn 0.000000 0.000000 1.000000
vn 0.000000 0.000000 1.000000
vn 0.000000 0.000000 1.000000
vn 0.000000 0.000000 1.000000
vn 0.000000 0.000000 1.000000
vn 0.000000 0.000000 1.000000
vn 0.000000 0.000000 1.000000
vn 0.000000 0.000000 1.000000
vn 0.000000 0.000000 1.000000
vn 0.000000 0.000000 1.000000
vn 0.000000 0.000000 1.000000
vn 0.000000 0.000000 1.000000
vn 0.000000 0.000000 1.000000
vn 0.000000 0.000000 1.000000
vn 0.000000 0.000000 1.000000
vn 0.000000 0.000000 1.000000
vn 0.000000 0.000000 1.000000
vn 0.000000 0.000000 1.000000
vn 0.000000 0.000000 1.000000
vn 0.000000 0.000000 1.000000
vn 0.000000 0.000000 1.000000
vn 0.000000 0.000000 1.000000
vn 0.000000 1.000000 0.000000
vn 0.000000 1.000000 0.000000
vn 0.000000 1.000000 0.000000
vn 0.000000 1.000000 0.000000
vn 0.999901 -0.014048 0.000000
vn 0.999901 -0.014048 0.000000
vn 0.999908 -0.013600 0.000000
vn 0.999908 -0.013577 0.000000
vn -1.000000 0.000000 0.000000
vn -1.000000 0.000000 0.000000
vn -1.000000 0.000000 0.000000
vn -1.000000 0.000000 0.000000
vn 0.000000 -1.000000 0.000000
vn 0.000000 -1.000000 0.000000
vn 0.000000 -1.000000 0.000000
vn 0.000000 -1.000000 0.000000
vn 1.000000 0.000000 0.000000
vn 0.999908 -0.013577 0.000000
vn 0.999916 -0.012999 0.000000
vn 1.000000 0.000000 0.000000
vn 0.999908 -0.013577 0.000000
vn 0.999908 -0.013600 0.000000
vn 0.999915 -0.013049 0.000000
vn 0.999916 -0.012999 0.000000
vn 0.999908 -0.013600 0.000000
vn 1.000000 0.000000 0.000000
vn 1.000000 0.000000 0.000000
vn 0.999915 -0.013049 0.000000
vn -1.000000 0.000000 0.000000
vn -1.000000 0.000000 0.000000
vn -1.000000 0.000000 0.000000
vn -1.000000 0.000000 0.000000
vn -1.000000 0.000000 0.000000
vn -1.000000 0.000000 0.000000
vn -1.000000 0.000000 0.000000
vn -1.000000 0.000000 0.000000
vn -1.000000 0.000000 0.000000
vn -1.000000 0.000000 0.000000
vn -1.000000 0.000000 0.000000
vn -1.000000 0.000000 0.000000
s off
g WallWide_low:group12 WallWide_low:pasted__WallStraight15 WallWide_low:pasted__polySurface271 WallWide_low:polySurface1
usemtl blinn22SG
f 13/1/1 14/2/2 15/3/3 16/4/4
f 5/5/5 7/6/6 8/7/7 6/8/8
f 21/9/9 22/10/10 23/11/11 24/12/12
f 16/4/13 15/3/14 17/13/15 18/14/16
f 1/15/17 2/16/18 4/17/19 3/18/20
f 24/12/21 23/11/22 25/19/23 26/20/24
f 18/14/25 17/13/26 19/21/27 20/22/28
f 9/23/29 10/24/30 12/25/31 11/26/32
f 26/20/33 25/19/34 27/27/35 28/28/36
f 2/29/37 1/30/38 6/8/39 8/7/40
f 1/31/41 3/32/42 9/33/43 6/34/44
f 4/35/45 2/36/46 8/37/47 10/38/48
f 3/39/49 4/40/50 10/24/51 9/23/52
f 5/41/53 6/34/54 15/3/55 14/2/56
f 6/34/57 9/33/58 17/13/59 15/3/60
f 9/33/61 11/42/62 19/21/63 17/13/64
f 8/37/65 7/43/66 21/9/67 24/12/68
f 10/38/69 8/37/70 24/12/71 26/20/72
f 12/44/73 10/38/74 26/20/75 28/28/76
