# This file uses meters as units for non-parametric coordinates.

mtllib Workbench_low.mtl
g default
v -101.280632 90.229431 50.000000
v 98.719398 90.229439 50.000000
v -101.280632 96.008736 50.000000
v 98.719398 96.008736 50.000000
v -101.280632 96.008736 -50.000000
v 98.719398 96.008736 -50.000000
v -101.280632 90.229431 -50.000000
v 98.719398 90.229439 -50.000000
vt 0.018125 0.313613
vt 0.645351 0.313613
vt 0.645351 0.331738
vt 0.018125 0.331738
vt 0.645351 0.645350
vt 0.018125 0.645350
vt 0.645351 0.663475
vt 0.018125 0.663475
vt 0.018125 0.000000
vt 0.645351 0.000000
vt 0.663476 0.331738
vt 0.663475 0.645350
vt 0.000000 0.645350
vt 0.000000 0.331738
vn 0.000000 0.000000 1.000000
vn 0.000000 0.000000 1.000000
vn 0.000000 0.000000 1.000000
vn 0.000000 0.000000 1.000000
vn 0.000000 1.000000 0.000000
vn 0.000000 1.000000 0.000000
vn 0.000000 1.000000 0.000000
vn 0.000000 1.000000 0.000000
vn 0.000000 0.000000 -1.000000
vn 0.000000 0.000000 -1.000000
vn 0.000000 0.000000 -1.000000
vn 0.000000 0.000000 -1.000000
vn 0.000000 -1.000000 0.000000
vn 0.000000 -1.000000 0.000000
vn 0.000000 -1.000000 0.000000
vn 0.000000 -1.000000 0.000000
vn 1.000000 0.000000 0.000000
vn 1.000000 0.000000 0.000000
vn 1.000000 0.000000 0.000000
vn 1.000000 0.000000 0.000000
vn -1.000000 0.000000 0.000000
vn -1.000000 0.000000 0.000000
vn -1.000000 0.000000 0.000000
vn -1.000000 0.000000 0.000000
s off
g polySurface72 pasted__Workbench pasted__group13 group
usemtl blinn2SG
f 1/1/1 2/2/2 4/3/3 3/4/4
f 3/4/5 4/3/6 6/5/7 5/6/8
f 5/6/9 6/5/10 8/7/11 7/8/12
f 7/9/13 8/10/14 2/2/15 1/1/16
f 2/11/17 8/12/18 6/5/19 4/3/20
f 7/13/21 1/14/22 3/4/23 5/6/24
g default
v -87.500870 11.021183 37.570118
v -87.500870 11.021187 -36.901340
v -87.500870 21.841232 37.570118
v -87.500870 21.841236 -36.901340
v -92.425385 21.841232 37.570118
v -92.425385 21.841236 -36.901340
v -92.425385 11.021183 37.570118
v -92.425385 11.021187 -36.901340
vt 0.950622 0.996268
vt 0.950622 0.762715
vt 0.984555 0.762715
vt 0.984555 0.996268
vt 0.015444 0.000000
vt 0.015444 0.233554
vt 0.000000 0.233554
vt 0.000000 0.000000
vt 0.901245 0.996268
vt 0.901246 0.762715
vt 0.935179 0.762715
vt 0.935179 0.996268
vn 1.000000 0.000000 0.000000
vn 1.000000 0.000000 0.000000
vn 1.000000 0.000000 0.000000
vn 1.000000 0.000000 0.000000
vn 0.000000 1.000000 0.000000
vn 0.000000 1.000000 0.000000
vn 0.000000 1.000000 0.000000
vn 0.000000 1.000000 0.000000
vn -1.000000 0.000000 0.000000
vn -1.000000 0.000000 0.000000
vn -1.000000 0.000000 0.000000
vn -1.000000 0.000000 0.000000
vn 0.000000 -1.000000 -0.000000
vn 0.000000 -1.000000 -0.000000
vn 0.000000 -1.000000 -0.000000
vn 0.000000 -1.000000 -0.000000
s off
g pasted__Workbench pasted__group13 group polySurface71
usemtl blinn2SG
f 9/15/25 10/16/26 12/17/27 11/18/28
f 11/19/29 12/20/30 14/21/31 13/22/32
f 13/23/33 14/24/34 16/25/35 15/26/36
f 15/26/37 16/25/38 10/16/39 9/15/40
g default
v -85.646187 11.021185 -37.546841
v 83.084892 11.021189 -37.546841
v -85.646126 21.841234 -37.546841
v 83.084953 21.841236 -37.546841
v -85.646126 21.841234 -42.471363
v 83.084953 21.841236 -42.471363
v -85.646187 11.021185 -42.471363
v 83.084892 11.021189 -42.471363
vt 0.903867 0.000000
vt 0.903867 0.529163
vt 0.869933 0.529163
vt 0.869933 0.000000
vt 0.854489 0.529163
vt 0.854490 0.000000
vt 0.820556 0.529163
vt 0.820557 0.000000
vt 0.805112 0.529163
vt 0.805113 0.000000
vn 0.000000 0.000000 1.000000
vn 0.000000 0.000000 1.000000
vn 0.000000 0.000000 1.000000
vn 0.000000 0.000000 1.000000
vn -0.000000 1.000000 0.000000
vn -0.000000 1.000000 0.000000
vn -0.000000 1.000000 0.000000
vn -0.000000 1.000000 0.000000
vn 0.000000 0.000000 -1.000000
vn 0.000000 0.000000 -1.000000
vn 0.000000 0.000000 -1.000000
vn 0.000000 0.000000 -1.000000
vn 0.000000 -1.000000 0.000000
vn 0.000000 -1.000000 0.000000
vn 0.000000 -1.000000 0.000000
vn 0.000000 -1.000000 0.000000
s off
g pasted__Workbench pasted__group13 group polySurface70
usemtl blinn2SG
f 17/27/41 18/28/42 20/29/43 19/30/44
f 19/30/45 20/29/46 22/31/47 21/32/48
f 21/32/49 22/31/50 24/33/51 23/34/52
f 23/34/53 24/33/54 18/35/55 17/36/56
g default
v 90.826050 11.021187 37.570118
v 90.826050 11.021191 -36.901340
v 90.826050 21.841236 37.570118
v 90.826050 21.841240 -36.901340
v 85.901535 21.841236 37.570118
v 85.901535 21.841240 -36.901340
v 85.901535 11.021187 37.570118
v 85.901535 11.021191 -36.901340
vt 0.950622 0.762715
vt 0.950622 0.529163
vt 0.984555 0.529163
vt 0.984556 0.762715
vt 0.999999 0.529163
vt 1.000000 0.762715
vt 0.901245 0.762715
vt 0.901246 0.529163
vt 0.935179 0.529163
vt 0.935178 0.762715
vn 1.000000 0.000000 0.000000
vn 1.000000 0.000000 0.000000
vn 1.000000 0.000000 0.000000
vn 1.000000 0.000000 0.000000
vn 0.000000 1.000000 0.000000
vn 0.000000 1.000000 0.000000
vn 0.000000 1.000000 0.000000
vn 0.000000 1.000000 0.000000
vn -1.000000 0.000000 0.000000
vn -1.000000 0.000000 0.000000
vn -1.000000 0.000000 0.000000
vn -1.000000 0.000000 0.000000
vn 0.000000 -1.000000 -0.000000
vn 0.000000 -1.000000 -0.000000
vn 0.000000 -1.000000 -0.000000
vn 0.000000 -1.000000 -0.000000
s off
g pasted__Workbench pasted__group13 group polySurface69
usemtl blinn2SG
f 25/37/57 26/38/58 28/39/59 27/40/60
f 27/40/61 28/39/62 30/41/63 29/42/64
f 29/43/65 30/44/66 32/45/67 31/46/68
f 31/46/69 32/45/70 26/38/71 25/37/72
g default
v -98.698883 21.853691 10.813979
v 101.301132 21.853695 10.813979
v -98.698875 24.232578 10.813979
v 101.301147 24.232578 10.813979
v -98.698875 24.232578 -8.993707
v 101.301147 24.232578 -8.993707
v -98.698883 21.853691 -8.993707
v 101.301132 21.853695 -8.993707
vt 0.664919 0.634686
vt 0.664919 0.007461
vt 0.672379 0.007461
vt 0.672380 0.634685
vt 0.734499 0.007461
vt 0.734499 0.634686
vt 0.741960 0.007461
vt 0.741960 0.634686
vt 0.804079 0.007461
vt 0.804079 0.634686
vt 0.672380 0.000000
vt 0.734499 0.000000
vt 0.734499 0.642147
vt 0.672379 0.642144
vn 0.000000 0.000000 1.000000
vn 0.000000 0.000000 1.000000
vn 0.000000 0.000000 1.000000
vn 0.000000 0.000000 1.000000
vn 0.000000 1.000000 0.000000
vn 0.000000 1.000000 0.000000
vn 0.000000 1.000000 0.000000
vn 0.000000 1.000000 0.000000
vn 0.000000 0.000000 -1.000000
vn 0.000000 0.000000 -1.000000
vn 0.000000 0.000000 -1.000000
vn 0.000000 0.000000 -1.000000
vn 0.000000 -1.000000 0.000000
vn 0.000000 -1.000000 0.000000
vn 0.000000 -1.000000 0.000000
vn 0.000000 -1.000000 0.000000
vn 1.000000 -0.000005 0.000000
vn 1.000000 -0.000005 0.000000
vn 1.000000 -0.000005 0.000000
vn 1.000000 -0.000005 0.000000
vn -1.000000 0.000003 0.000000
vn -1.000000 0.000003 0.000000
vn -1.000000 0.000003 0.000000
vn -1.000000 0.000003 0.000000
s off
g pasted__Workbench pasted__group13 group polySurface68
usemtl blinn2SG
f 33/47/73 34/48/74 36/49/75 35/50/76
f 35/50/77 36/49/78 38/51/79 37/52/80
f 37/52/81 38/51/82 40/53/83 39/54/84
f 39/54/85 40/53/86 34/55/87 33/56/88
f 34/57/89 40/58/90 38/51/91 36/49/92
f 39/59/93 33/60/94 35/50/95 37/52/96
g default
v -85.646187 11.021185 42.131016
v 83.084892 11.021189 42.131016
v -85.646126 21.841234 42.131016
v 83.084953 21.841236 42.131016
v -85.646126 21.841234 37.206493
v 83.084953 21.841236 37.206493
v -85.646187 11.021185 37.206493
v 83.084892 11.021189 37.206493
vt 0.820556 0.529163
vt 0.820556 0.000000
vt 0.854489 0.000000
vt 0.854490 0.529163
vt 0.869933 0.000000
vt 0.869933 0.529163
vt 0.903866 0.000000
vt 0.903867 0.529163
vt 0.805112 0.529163
vt 0.805112 0.000000
vn 0.000000 0.000000 1.000000
vn 0.000000 0.000000 1.000000
vn 0.000000 0.000000 1.000000
vn 0.000000 0.000000 1.000000
vn -0.000000 1.000000 0.000000
vn -0.000000 1.000000 0.000000
vn -0.000000 1.000000 0.000000
vn -0.000000 1.000000 0.000000
vn 0.000000 0.000000 -1.000000
vn 0.000000 0.000000 -1.000000
vn 0.000000 0.000000 -1.000000
vn 0.000000 0.000000 -1.000000
vn 0.000000 -1.000000 0.000000
vn 0.000000 -1.000000 0.000000
vn 0.000000 -1.000000 0.000000
vn 0.000000 -1.000000 0.000000
s off
g pasted__Workbench pasted__group13 group polySurface67
usemtl blinn2SG
f 41/61/97 42/62/98 44/63/99 43/64/100
f 43/64/101 44/63/102 46/65/103 45/66/104
f 45/66/105 46/65/106 48/67/107 47/68/108
f 47/69/109 48/70/110 42/62/111 41/61/112
g default
v -87.500870 80.737259 37.570118
v -87.500870 80.737259 -36.901340
v -87.500870 91.557312 37.570118
v -87.500870 91.557312 -36.901340
v -92.425385 91.557312 37.570118
v -92.425385 91.557312 -36.901340
v -92.425385 80.737259 37.570118
v -92.425385 80.737259 -36.901340
vt 0.950622 0.996268
vt 0.950622 0.762715
vt 0.984556 0.762715
vt 0.984556 0.996268
vt 0.901245 0.996268
vt 0.901245 0.762716
vt 0.935179 0.762716
vt 0.935179 0.996268
vn 1.000000 0.000000 0.000000
vn 1.000000 0.000000 0.000000
vn 1.000000 0.000000 0.000000
vn 1.000000 0.000000 0.000000
vn -1.000000 0.000000 0.000000
vn -1.000000 0.000000 0.000000
vn -1.000000 0.000000 0.000000
vn -1.000000 0.000000 0.000000
vn 0.000000 -1.000000 0.000000
vn 0.000000 -1.000000 0.000000
vn 0.000000 -1.000000 0.000000
vn 0.000000 -1.000000 0.000000
s off
g pasted__Workbench pasted__group13 group polySurface66
usemtl blinn2SG
f 49/71/113 50/72/114 52/73/115 51/74/116
f 53/75/117 54/76/118 56/77/119 55/78/120
f 55/78/121 56/77/122 50/72/123 49/71/124
g default
v -85.646187 80.737267 -37.546841
v 83.084892 80.737267 -37.546841
v -85.646126 91.557320 -37.546841
v 83.084953 91.557320 -37.546841
v -85.646126 91.557320 -42.471363
v 83.084953 91.557320 -42.471363
v -85.646187 80.737267 -42.471363
v 83.084892 80.737267 -42.471363
vt 0.954628 0.529163
vt 0.954628 0.000000
vt 0.988561 -0.000000
vt 0.988561 0.529162
vt 0.905251 0.529162
vt 0.905251 -0.000000
vt 0.939184 0.000000
vt 0.939184 0.529163
vn 0.000000 0.000000 1.000000
vn 0.000000 0.000000 1.000000
vn 0.000000 0.000000 1.000000
vn 0.000000 0.000000 1.000000
vn 0.000000 0.000000 -1.000000
vn 0.000000 0.000000 -1.000000
vn 0.000000 0.000000 -1.000000
vn 0.000000 0.000000 -1.000000
vn 0.000000 -1.000000 0.000000
vn 0.000000 -1.000000 0.000000
vn 0.000000 -1.000000 0.000000
vn 0.000000 -1.000000 0.000000
s off
g pasted__Workbench pasted__group13 group polySurface65
usemtl blinn2SG
f 57/79/125 58/80/126 60/81/127 59/82/128
f 61/83/129 62/84/130 64/85/131 63/86/132
f 63/86/133 64/85/134 58/80/135 57/79/136
g default
v 90.826050 80.737267 37.570118
v 90.826050 80.737267 -36.901340
v 90.826050 91.557320 37.570118
v 90.826050 91.557320 -36.901340
v 85.901535 91.557320 37.570118
v 85.901535 91.557320 -36.901340
v 85.901535 80.737267 37.570118
v 85.901535 80.737267 -36.901340
vt 0.950622 0.996268
vt 0.950622 0.762715
vt 0.984555 0.762715
vt 0.984555 0.996268
vt 0.901245 0.996268
vt 0.901245 0.762715
vt 0.935178 0.762715
vt 0.935178 0.996268
vn 1.000000 0.000000 0.000000
vn 1.000000 0.000000 0.000000
vn 1.000000 0.000000 0.000000
vn 1.000000 0.000000 0.000000
vn -1.000000 0.000000 0.000000
vn -1.000000 0.000000 0.000000
vn -1.000000 0.000000 0.000000
vn -1.000000 0.000000 0.000000
vn 0.000000 -1.000000 0.000000
vn 0.000000 -1.000000 0.000000
vn 0.000000 -1.000000 0.000000
vn 0.000000 -1.000000 0.000000
s off
g pasted__Workbench pasted__group13 group polySurface64
usemtl blinn2SG
f 65/87/137 66/88/138 68/89/139 67/90/140
f 69/91/141 70/92/142 72/93/143 71/94/144
f 71/94/145 72/93/146 66/88/147 65/87/148
g default
v -85.646187 80.737267 42.131016
v 83.084892 80.737267 42.131016
v -85.646126 91.557320 42.131016
v 83.084953 91.557320 42.131016
v -85.646126 91.557320 37.206493
v 83.084953 91.557320 37.206493
v -85.646187 80.737267 37.206493
v 83.084892 80.737267 37.206493
vt 0.954628 0.529162
vt 0.954628 0.000000
vt 0.988561 0.000000
vt 0.988561 0.529162
vt 0.905251 0.529162
vt 0.905251 0.000000
vt 0.939184 0.000000
vt 0.939184 0.529162
vn 0.000000 0.000000 1.000000
vn 0.000000 0.000000 1.000000
vn 0.000000 0.000000 1.000000
vn 0.000000 0.000000 1.000000
vn 0.000000 0.000000 -1.000000
vn 0.000000 0.000000 -1.000000
vn 0.000000 0.000000 -1.000000
vn 0.000000 0.000000 -1.000000
vn 0.000000 -1.000000 0.000000
vn 0.000000 -1.000000 0.000000
vn 0.000000 -1.000000 0.000000
vn 0.000000 -1.000000 0.000000
s off
g pasted__Workbench pasted__group13 group polySurface63
usemtl blinn2SG
f 73/95/149 74/96/150 76/97/151 75/98/152
f 77/99/153 78/100/154 80/101/155 79/102/156
f 79/102/157 80/101/158 74/96/159 73/95/160
g default
v 0.992013 11.574118 40.124031
v 0.992013 11.574121 -39.455254
v 0.992013 21.616705 40.124031
v 0.992013 21.616709 -39.455254
v -3.932502 21.616705 40.124031
v -3.932502 21.616709 -39.455254
v -3.932502 11.574118 40.124031
v -3.932502 11.574121 -39.455254
vt 0.898990 0.529163
vt 0.898990 0.778734
vt 0.867495 0.778734
vt 0.867495 0.529163
vt 0.852051 0.778734
vt 0.852051 0.529163
vt 0.820556 0.778734
vt 0.820556 0.529163
vt 0.805112 0.778734
vt 0.805112 0.529163
vn 1.000000 0.000000 0.000000
vn 1.000000 0.000000 0.000000
vn 1.000000 0.000000 0.000000
vn 1.000000 0.000000 0.000000
vn 0.000000 1.000000 0.000000
vn 0.000000 1.000000 0.000000
vn 0.000000 1.000000 0.000000
vn 0.000000 1.000000 0.000000
vn -1.000000 0.000000 0.000000
vn -1.000000 0.000000 0.000000
vn -1.000000 0.000000 0.000000
vn -1.000000 0.000000 0.000000
vn 0.000000 -1.000000 -0.000000
vn 0.000000 -1.000000 -0.000000
vn 0.000000 -1.000000 -0.000000
vn 0.000000 -1.000000 -0.000000
s off
g pasted__Workbench pasted__group13 group polySurface62
usemtl blinn2SG
f 81/103/161 82/104/162 84/105/163 83/106/164
f 83/106/165 84/105/166 86/107/167 85/108/168
f 85/108/169 86/107/170 88/109/171 87/110/172
f 87/110/173 88/109/174 82/111/175 81/112/176
g default
v -101.301147 21.853691 30.953232
v 98.698433 21.853695 31.371939
v -101.301147 24.232578 30.953232
v 98.698441 24.232578 31.371939
v -101.259666 24.232578 11.145589
v 98.739914 24.232578 11.564298
v -101.259674 21.853691 11.145589
v 98.739914 21.853695 11.564298
vt 0.742616 0.007543
vt 0.741303 0.634766
vt 0.733842 0.634751
vt 0.735155 0.007528
vt 0.671723 0.634621
vt 0.673036 0.007397
vt 0.664262 0.634605
vt 0.665575 0.007382
vt 0.804735 0.007673
vt 0.803422 0.634897
vt 0.733827 0.642211
vt 0.671707 0.642082
vt 0.673052 -0.000064
vt 0.735171 0.000068
vn -0.002094 0.000000 0.999998
vn -0.002094 0.000000 0.999998
vn -0.002094 0.000000 0.999998
vn -0.002094 0.000000 0.999998
vn 0.000000 1.000000 -0.000000
vn 0.000000 1.000000 -0.000000
vn 0.000000 1.000000 -0.000000
vn 0.000000 1.000000 -0.000000
vn 0.002094 -0.000000 -0.999998
vn 0.002094 -0.000000 -0.999998
vn 0.002094 -0.000000 -0.999998
vn 0.002094 -0.000000 -0.999998
vn 0.000000 -1.000000 0.000000
vn 0.000000 -1.000000 0.000000
vn 0.000000 -1.000000 0.000000
vn 0.000000 -1.000000 0.000000
vn 0.999998 0.000000 0.002094
vn 0.999998 0.000000 0.002094
vn 0.999998 0.000000 0.002094
vn 0.999998 0.000000 0.002094
vn -0.999998 0.000000 -0.002094
vn -0.999998 0.000000 -0.002094
vn -0.999998 0.000000 -0.002094
vn -0.999998 0.000000 -0.002094
s off
g pasted__Workbench pasted__group13 group polySurface61
usemtl blinn2SG
f 89/113/177 90/114/178 92/115/179 91/116/180
f 91/116/181 92/115/182 94/117/183 93/118/184
f 93/118/185 94/117/186 96/119/187 95/120/188
f 95/121/189 96/122/190 90/114/191 89/113/192
f 90/123/193 96/124/194 94/117/195 92/115/196
f 95/125/197 89/126/198 91/116/199 93/118/200
g default
v -82.970848 -0.368242 -45.813873
v -97.878014 -0.368244 -45.813873
v -82.970848 91.375687 -45.813873
v -97.878014 91.375679 -45.813873
v -82.970848 91.375687 -30.906708
v -97.878014 91.375679 -30.906708
v -82.970848 -0.368242 -30.906708
v -97.878014 -0.368244 -30.906708
vt 0.000000 0.803727
vt 0.000000 0.756976
vt 0.287721 0.756977
vt 0.287721 0.803728
vt 0.287721 0.663475
vt 0.287721 0.710226
vt 0.000001 0.710226
vt 0.000000 0.663475
vt 0.000000 0.850478
vt 0.287721 0.850479
vn 0.000000 0.000000 -1.000000
vn 0.000000 0.000000 -1.000000
vn 0.000000 0.000000 -1.000000
vn 0.000000 0.000000 -1.000000
vn 0.000000 0.000000 1.000000
vn 0.000000 0.000000 1.000000
vn 0.000000 0.000000 1.000000
vn 0.000000 0.000000 1.000000
vn -1.000000 0.000000 0.000000
vn -1.000000 0.000000 0.000000
vn -1.000000 0.000000 0.000000
vn -1.000000 0.000000 0.000000
vn 1.000000 0.000000 0.000000
vn 1.000000 0.000000 0.000000
vn 1.000000 0.000000 0.000000
vn 1.000000 0.000000 0.000000
s off
g pasted__Workbench pasted__group13 group polySurface60
usemtl blinn2SG
f 97/127/201 98/128/202 100/129/203 99/130/204
f 101/131/205 102/132/206 104/133/207 103/134/208
f 98/128/209 104/133/210 102/132/211 100/129/212
f 103/135/213 97/127/214 99/130/215 101/136/216
g default
v 80.409615 -0.368242 -45.813873
v 95.316780 -0.368244 -45.813873
v 80.409615 91.375687 -45.813873
v 95.316780 91.375679 -45.813873
v 80.409615 91.375687 -30.906708
v 95.316780 91.375679 -30.906708
v 80.409615 -0.368242 -30.906708
v 95.316780 -0.368244 -30.906708
vt 0.287721 0.803728
vt 0.000000 0.803728
vt 0.000000 0.756977
vt 0.287721 0.756977
vt 0.000000 0.663475
vt 0.287721 0.663475
vt 0.287721 0.710226
vt 0.000000 0.710226
vt 0.287721 0.850478
vt 0.000000 0.850478
vn -0.000000 0.000000 -1.000000
vn -0.000000 0.000000 -1.000000
vn -0.000000 0.000000 -1.000000
vn -0.000000 0.000000 -1.000000
vn -0.000000 0.000000 1.000000
vn -0.000000 0.000000 1.000000
vn -0.000000 0.000000 1.000000
vn -0.000000 0.000000 1.000000
vn 1.000000 0.000000 0.000000
vn 1.000000 0.000000 0.000000
vn 1.000000 0.000000 0.000000
vn 1.000000 0.000000 0.000000
vn -1.000000 0.000000 0.000000
vn -1.000000 0.000000 0.000000
vn -1.000000 0.000000 0.000000
vn -1.000000 0.000000 0.000000
s off
g pasted__Workbench pasted__group13 group polySurface59
usemtl blinn2SG
f 105/137/217 107/138/218 108/139/219 106/140/220
f 109/141/221 111/142/222 112/143/223 110/144/224
f 106/140/225 108/139/226 110/144/227 112/143/228
f 111/145/229 109/146/230 107/138/231 105/137/232
g default
v -82.970848 -0.368242 45.813873
v -97.878014 -0.368244 45.813873
v -82.970848 91.375687 45.813873
v -97.878014 91.375679 45.813873
v -82.970848 91.375687 30.906708
v -97.878014 91.375679 30.906708
v -82.970848 -0.368242 30.906708
v -97.878014 -0.368244 30.906708
v -97.348732 51.634640 45.284592
v -97.348732 51.634640 31.435989
v -83.500130 51.634644 31.435989
v -83.500130 51.634644 45.284592
vt 0.334432 0.951380
vt 0.334557 0.788305
vt 0.379629 0.788305
vt 0.379754 0.951380
vt 0.468951 0.788102
vt 0.471109 0.951169
vt 0.425076 0.951311
vt 0.424701 0.788236
vt 0.288399 0.951309
vt 0.290307 0.788238
vt 0.379534 0.663685
vt 0.424415 0.663616
vt 0.470229 0.663475
vt 0.288838 0.663614
vt 0.334652 0.663685
vn 0.000000 0.010177 0.999948
vn 0.000000 -0.000011 1.000000
vn 0.000000 -0.000011 1.000000
vn 0.000000 0.010177 0.999948
vn -0.000000 -0.000011 -1.000000
vn -0.000000 0.010177 -0.999948
vn -0.000000 0.010177 -0.999948
vn -0.000000 -0.000011 -1.000000
vn -0.999948 0.010177 0.000000
vn -1.000000 -0.000011 0.000000
vn -1.000000 -0.000011 0.000000
vn -0.999948 0.010177 0.000000
vn 0.999948 0.010178 0.000000
vn 1.000000 -0.000011 0.000000
vn 1.000000 -0.000011 0.000000
vn 0.999948 0.010178 0.000000
vn -0.999911 -0.013317 0.000000
vn -0.999911 -0.013317 0.000000
vn 0.000000 -0.013317 -0.999911
vn 0.000000 -0.013317 -0.999911
vn 0.999911 -0.013317 0.000000
vn 0.999911 -0.013317 0.000000
vn 0.000000 -0.013317 0.999911
vn 0.000000 -0.013317 0.999911
s 1
g pasted__Workbench pasted__group13 group polySurface58
usemtl blinn2SG
f 113/147/233 124/148/234 121/149/235 114/150/236
s 2
f 123/151/237 119/152/238 120/153/239 122/154/240
s 3
f 114/150/241 121/149/242 122/154/243 120/153/244
s 4
f 119/155/245 123/156/246 124/148/247 113/147/248
s 3
f 121/149/242 116/157/249 118/158/250 122/154/243
s 2
f 117/159/251 123/151/237 122/154/240 118/158/252
s 4
f 124/148/247 123/156/246 117/160/253 115/161/254
s 1
f 121/149/235 124/148/234 115/161/255 116/157/256
g default
v 82.054497 -0.368242 49.198212
v 96.961662 -0.368244 49.198212
v 80.409615 91.375687 45.813873
v 95.316780 91.375679 45.813873
v 80.409615 91.375687 30.906708
v 95.316780 91.375679 30.906708
v 82.054497 -0.368242 34.291046
v 96.961662 -0.368244 34.291046
v 95.316780 42.131893 45.813873
v 80.409615 42.131901 45.813873
v 80.409615 42.131901 30.906708
v 95.316780 42.131893 30.906708
vt 0.800634 0.717326
vt 0.800687 0.761048
vt 0.667159 0.760260
vt 0.667207 0.710650
vt 0.663111 0.854361
vt 0.664673 0.808347
vt 0.798251 0.806274
vt 0.796551 0.853799
vt 0.799844 0.671348
vt 0.666332 0.663157
vt 0.512766 0.756194
vt 0.512721 0.712056
vt 0.511858 0.665968
vt 0.508703 0.849035
vt 0.510326 0.801618
vn 0.000000 0.079380 0.996845
vn 0.000000 0.079380 0.996845
vn 0.000000 0.037344 0.999303
vn 0.000000 0.036373 0.999338
vn 0.000000 -0.036373 -0.999338
vn 0.000000 -0.037344 -0.999303
vn 0.000000 -0.079380 -0.996845
vn 0.000000 -0.079380 -0.996845
vn 0.999252 0.038674 0.000000
vn 0.999252 0.038674 0.000000
vn 0.999848 0.017428 0.000000
vn 0.999831 0.018401 0.000000
vn -0.999252 -0.038674 0.000000
vn -0.999252 -0.038674 0.000000
vn -0.999831 -0.018401 0.000000
vn -0.999848 -0.017428 0.000000
vn 0.000000 0.000000 1.000000
vn 0.000000 0.000000 1.000000
vn -1.000000 0.000000 0.000000
vn -1.000000 0.000000 0.000000
vn 0.000000 0.000000 -1.000000
vn 0.000000 0.000000 -1.000000
vn 1.000000 0.000000 0.000000
vn 1.000000 0.000000 0.000000
s 1
g pasted__Workbench pasted__group13 group polySurface57
usemtl blinn2SG
f 125/162/257 126/163/258 133/164/259 134/165/260
s 2
f 135/166/261 136/167/262 132/168/263 131/169/264
s 3
f 126/163/265 132/168/266 136/167/267 133/164/268
s 4
f 131/170/269 125/162/270 134/165/271 135/171/272
s 1
f 134/165/260 133/164/259 128/172/273 127/173/274
s 4
f 135/171/272 134/165/271 127/173/275 129/174/276
s 2
f 129/175/277 130/176/278 136/167/262 135/166/261
s 3
f 133/164/268 136/167/267 130/176/279 128/172/280
g default
v -101.280632 21.853691 -10.300329
v 98.719398 21.853695 -10.300329
v -101.280632 24.232578 -10.300329
v 98.719398 24.232578 -10.300329
v -101.280632 24.232578 -30.108013
v 98.719398 24.232578 -30.108013
v -101.280632 21.853691 -30.108013
v 98.719398 21.853695 -30.108013
vt 0.664919 0.634686
vt 0.664919 0.007461
vt 0.672379 0.007461
vt 0.672379 0.634686
vt 0.734499 0.007460
vt 0.734499 0.634686
vt 0.741959 0.007461
vt 0.741959 0.634686
vt 0.804078 0.007461
vt 0.804079 0.634686
vt 0.672380 0.000000
vt 0.734499 0.000000
vt 0.734499 0.642147
vt 0.672380 0.642146
vn 0.000000 0.000000 1.000000
vn 0.000000 0.000000 1.000000
vn 0.000000 0.000000 1.000000
vn 0.000000 0.000000 1.000000
vn 0.000000 1.000000 0.000000
vn 0.000000 1.000000 0.000000
vn 0.000000 1.000000 0.000000
vn 0.000000 1.000000 0.000000
vn 0.000000 0.000000 -1.000000
vn 0.000000 0.000000 -1.000000
vn 0.000000 0.000000 -1.000000
vn 0.000000 0.000000 -1.000000
vn 0.000000 -1.000000 0.000000
vn 0.000000 -1.000000 0.000000
vn 0.000000 -1.000000 0.000000
vn 0.000000 -1.000000 0.000000
vn 1.000000 0.000000 0.000000
vn 1.000000 0.000000 0.000000
vn 1.000000 0.000000 0.000000
vn 1.000000 0.000000 0.000000
vn -1.000000 0.000000 0.000000
vn -1.000000 0.000000 0.000000
vn -1.000000 0.000000 0.000000
vn -1.000000 0.000000 0.000000
s off
g pasted__Workbench pasted__group13 group polySurface56
usemtl blinn2SG
f 137/177/281 138/178/282 140/179/283 139/180/284
f 139/180/285 140/179/286 142/181/287 141/182/288
f 141/182/289 142/181/290 144/183/291 143/184/292
f 143/184/293 144/183/294 138/185/295 137/186/296
f 138/187/297 144/188/298 142/181/299 140/179/300
f 143/189/301 137/190/302 139/180/303 141/182/304
